<?xml version="1.0" encoding="utf-8"?>
<!-- Generator: Adobe Illustrator 25.3.1, SVG Export Plug-In . SVG Version: 6.00 Build 0)  -->
<svg version="1.1" id="Layer_1" xmlns="http://www.w3.org/2000/svg" xmlns:xlink="http://www.w3.org/1999/xlink" x="0px" y="0px"
	 width="40px" height="40px" viewBox="0 0 40 40" style="enable-background:new 0 0 40 40;" xml:space="preserve">
<style type="text/css">
	.st0{clip-path:url(#SVGID_2_);fill:url(#SVGID_3_);}
	.st1{opacity:0.3;fill-rule:evenodd;clip-rule:evenodd;fill:#283440;}
	.st2{fill-rule:evenodd;clip-rule:evenodd;fill:#15212D;}
	.st3{clip-path:url(#SVGID_5_);fill:url(#SVGID_6_);}
	.st4{clip-path:url(#SVGID_8_);fill:url(#SVGID_9_);}
	.st5{clip-path:url(#SVGID_11_);fill:url(#SVGID_12_);}
	.st6{fill-rule:evenodd;clip-rule:evenodd;fill:#1B2B3A;}
	.st7{clip-path:url(#SVGID_14_);fill-rule:evenodd;clip-rule:evenodd;fill:#324251;}
	.st8{opacity:0.5;fill-rule:evenodd;clip-rule:evenodd;fill:#283440;}
	.st9{opacity:0.2;fill-rule:evenodd;clip-rule:evenodd;fill:#FFFFFF;}
	.st10{opacity:0.5;fill:#7385A1;}
	.st11{opacity:0.5;fill-rule:evenodd;clip-rule:evenodd;fill:#7385A1;}
</style>
<g>
	<g>
		<defs>
			<path id="SVGID_1_" d="M18.4,9.6c-5,0-9.1,3.9-9.1,8.8c0,1.7,0.2,4.2,0.6,6.3c0.2,0.8,0.9,1.4,1.7,1.4l1.9,0c0.5,0,1-0.2,1.3-0.7
				l1.8-2.3c2.8-1.5,10.7-0.6,10.7-4.7C27.4,14.2,23.4,9.6,18.4,9.6"/>
		</defs>
		<clipPath id="SVGID_2_">
			<use xlink:href="#SVGID_1_"  style="overflow:visible;"/>
		</clipPath>
		<linearGradient id="SVGID_3_" gradientUnits="userSpaceOnUse" x1="19.8894" y1="22.3448" x2="14.3617" y2="5.7232">
			<stop  offset="0" style="stop-color:#324251"/>
			<stop  offset="1" style="stop-color:#6C849B"/>
		</linearGradient>
		<rect x="9.3" y="9.6" class="st0" width="18.1" height="16.4"/>
	</g>
	<path class="st1" d="M22.7,21.5c0.8-2.2,1.7-4.6,1.7-4.6s-7-0.4-9.7-1.9c-1-0.6-1.9-1.6-2.5-2.6c-1.6,1.5-2.6,3.6-2.6,6
		c0,0.9,0.1,2.1,0.2,3.3c0.1,1,0.2,2,0.5,2.9c0.1,0.3,0.3,0.6,0.5,0.8c0.3,0.2,0.6,0.3,0.9,0.3l1.9,0c0.2,0,0.4-0.1,0.6-0.1
		c0.2-0.1,0.4-0.2,0.5-0.4l1.9-2.3l0.1,0c1-0.5,2.5-0.8,4.2-1C21.4,21.7,22.1,21.6,22.7,21.5"/>
	<path class="st2" d="M13.7,18.3c-0.4,0-0.8,0.3-0.8,0.8c0,0.4,0.3,0.8,0.8,0.8c0.4,0,0.8-0.3,0.8-0.8
		C14.4,18.6,14.1,18.3,13.7,18.3 M16.3,17.3h-2.3c-0.9,0-1.7,0.8-1.7,1.7v0c0,0.9,0.8,1.7,1.7,1.7h2.3c0.9,0,1.7-0.8,1.7-1.7v0
		C18,18.1,17.2,17.3,16.3,17.3z"/>
	<g>
		<defs>
			<path id="SVGID_4_" d="M27.1,16.8H16.1c-0.4,0-0.7,0.3-0.7,0.7v9.8c0,0.8,0.5,1.5,1.3,1.7c3.5,1,7,1.5,10.6,1.4
				c1,0,1.7-0.8,1.7-1.8V18.6C28.9,17.6,28.1,16.8,27.1,16.8"/>
		</defs>
		<clipPath id="SVGID_5_">
			<use xlink:href="#SVGID_4_"  style="overflow:visible;"/>
		</clipPath>
		<linearGradient id="SVGID_6_" gradientUnits="userSpaceOnUse" x1="22.1218" y1="32.5959" x2="22.1218" y2="18.2318">
			<stop  offset="0" style="stop-color:#324251"/>
			<stop  offset="1" style="stop-color:#6C849B"/>
		</linearGradient>
		<rect x="15.3" y="16.8" class="st3" width="13.6" height="13.7"/>
	</g>
	<g>
		<defs>
			<path id="SVGID_7_" d="M29.4,19.3h-6.8v6.5l6.8-0.3c0.7,0,1.3-0.6,1.3-1.3v-3.7C30.7,19.8,30.1,19.3,29.4,19.3"/>
		</defs>
		<clipPath id="SVGID_8_">
			<use xlink:href="#SVGID_7_"  style="overflow:visible;"/>
		</clipPath>
		<linearGradient id="SVGID_9_" gradientUnits="userSpaceOnUse" x1="26.6622" y1="26.7745" x2="26.6622" y2="19.2832">
			<stop  offset="0" style="stop-color:#324251"/>
			<stop  offset="1" style="stop-color:#6C849B"/>
		</linearGradient>
		<rect x="22.6" y="19.3" class="st4" width="8.1" height="6.5"/>
	</g>
	<g>
		<defs>
			<path id="SVGID_10_" d="M22.6,19.3h-4.3c-0.3,0-0.6,0.3-0.6,0.6v5.2c0,0.3,0.3,0.6,0.6,0.6h4.3V19.3z"/>
		</defs>
		<clipPath id="SVGID_11_">
			<use xlink:href="#SVGID_10_"  style="overflow:visible;"/>
		</clipPath>
		<linearGradient id="SVGID_12_" gradientUnits="userSpaceOnUse" x1="20.1782" y1="24.0919" x2="20.1782" y2="16.8248">
			<stop  offset="0" style="stop-color:#324251"/>
			<stop  offset="1" style="stop-color:#6C849B"/>
		</linearGradient>
		<rect x="17.7" y="19.3" class="st5" width="4.9" height="6.5"/>
	</g>
	<path class="st6" d="M30.7,20.7h-5.8c-0.3,0-0.6,0.3-0.6,0.6v1.9c0,0.2,0.1,0.3,0.2,0.5c0.1,0.1,0.3,0.2,0.5,0.2l5.7-0.2V20.7z"/>
	<g>
		<defs>
			<path id="SVGID_13_" d="M30.7,20.7h-5.8c-0.3,0-0.6,0.3-0.6,0.6v1.9c0,0.2,0.1,0.3,0.2,0.5c0.1,0.1,0.3,0.2,0.5,0.2l5.7-0.2V20.7
				z"/>
		</defs>
		<clipPath id="SVGID_14_">
			<use xlink:href="#SVGID_13_"  style="overflow:visible;"/>
		</clipPath>
		<polygon class="st7" points="28.5,20.4 27.3,20.4 29,23.9 30.2,23.9 		"/>
		<polygon class="st7" points="26.5,20.4 25.7,20.4 27.4,23.9 28.2,23.9 		"/>
	</g>
	<path class="st8" d="M16.1,16.8L16.1,16.8c-0.4,0-0.8,0.3-0.8,0.7v9.8c0,0.8,0.5,1.5,1.3,1.7c3.5,1,7,1.5,10.6,1.4
		c0.7,0,1.2-0.4,1.5-1c-0.2,0.1-0.5,0.2-0.7,0.2c-3.5,0.1-7-0.4-10.6-1.4c-0.8-0.2-1.3-0.9-1.3-1.7V16.8z"/>
	<path class="st9" d="M27.6,17.4H17.2c-0.2,0-0.4,0.2-0.4,0.4v0c0,0.2,0.2,0.4,0.4,0.4h10.3c0.2,0,0.4-0.2,0.4-0.4v0
		C28,17.6,27.8,17.4,27.6,17.4"/>
	<path class="st9" d="M29.7,19.6h-6.5c-0.1,0-0.3,0.1-0.3,0.3c0,0.1,0.1,0.3,0.3,0.3h6.5c0.1,0,0.3-0.1,0.3-0.3
		C30,19.7,29.9,19.6,29.7,19.6"/>
	<path class="st10" d="M25.7,16.2c0.1,0.2,0.3,0.3,0.5,0.3c0.2-0.1,0.3-0.3,0.3-0.5c-0.2-0.5-0.3-0.9-0.6-1.4
		c-1-1.9-2.6-3.2-4.4-3.9c-1.8-0.7-4-0.8-5.9-0.2c-0.5,0.2-1,0.4-1.4,0.6c-0.2,0.1-0.3,0.3-0.2,0.5c0.1,0.2,0.3,0.3,0.5,0.2
		c0.4-0.2,0.9-0.4,1.3-0.5c1.8-0.6,3.7-0.5,5.4,0.2c1.7,0.7,3.1,1.9,4,3.6C25.4,15.3,25.5,15.7,25.7,16.2"/>
	<path class="st11" d="M27.5,26.3v2.3c0,0.2,0.2,0.4,0.4,0.4h0c0.2,0,0.4-0.2,0.4-0.4v-2.3c0-0.2-0.2-0.4-0.4-0.4h0
		C27.7,25.9,27.5,26.1,27.5,26.3"/>
</g>
</svg>
