<?xml version="1.0" encoding="utf-8"?>
<!-- Generator: Adobe Illustrator 25.3.1, SVG Export Plug-In . SVG Version: 6.00 Build 0)  -->
<svg version="1.1" id="Layer_1" xmlns="http://www.w3.org/2000/svg" xmlns:xlink="http://www.w3.org/1999/xlink" x="0px" y="0px"
	 width="40px" height="40px" viewBox="0 0 40 40" style="enable-background:new 0 0 40 40;" xml:space="preserve">
<style type="text/css">
	.st0{clip-path:url(#SVGID_2_);fill:url(#SVGID_3_);}
	.st1{opacity:0.5;fill-rule:evenodd;clip-rule:evenodd;fill:#5BABEE;}
	.st2{fill:#004C8F;}
	.st3{fill:#B43F15;}
	.st4{fill:#FACB48;}
	.st5{clip-path:url(#SVGID_5_);fill:url(#SVGID_6_);}
	.st6{opacity:0.5;clip-path:url(#SVGID_8_);fill-rule:evenodd;clip-rule:evenodd;fill:#FFFFFF;}
	.st7{clip-path:url(#SVGID_10_);fill:url(#SVGID_11_);}
	.st8{opacity:0.5;clip-path:url(#SVGID_13_);fill-rule:evenodd;clip-rule:evenodd;fill:#FFFFFF;}
	.st9{fill:#352F2C;}
	.st10{fill:#231916;}
	.st11{fill:#FFFFFF;}
</style>
<g>
	<g>
		<defs>
			<path id="SVGID_1_" d="M8.8,23.2c0,0-0.1-2.2,0.2-2.6c0.3-0.4-0.2-1.4-0.2-1.4l2.7-4.9c0,0-0.1-0.3,0.1-0.5c0,0,3.2-0.6,10.5,0
				c0,0,1.6,1.7,3.8,3.7c0,0,3.7,0.9,4.5,1.3c0.8,0.4,0.8,2.8,0.6,4.1L8.8,23.2z"/>
		</defs>
		<clipPath id="SVGID_2_">
			<use xlink:href="#SVGID_1_"  style="overflow:visible;"/>
		</clipPath>
		<linearGradient id="SVGID_3_" gradientUnits="userSpaceOnUse" x1="19.9699" y1="23.0683" x2="20.0067" y2="13.5197">
			<stop  offset="0" style="stop-color:#006ECD"/>
			<stop  offset="1" style="stop-color:#1E8FE8"/>
		</linearGradient>
		<rect x="8.7" y="13.2" class="st0" width="22.6" height="10"/>
	</g>
	<path class="st1" d="M10.3,19h19.3c0.2,0,0.3,0.1,0.3,0.3v0c0,0.2-0.1,0.3-0.3,0.3H10.3c-0.2,0-0.3-0.1-0.3-0.3v0
		C10,19.1,10.1,19,10.3,19"/>
	<path class="st2" d="M31.7,23.2c0,0.4-0.3,0.6-0.6,0.6H8.9c-0.4,0-0.6-0.3-0.6-0.6c0-0.4,0.3-0.6,0.6-0.6h22.2
		C31.4,22.6,31.7,22.9,31.7,23.2"/>
	<path class="st3" d="M9.4,20.1c0,0.2-0.2,0.4-0.4,0.4c-0.2,0-0.4-0.2-0.4-0.4v-0.6c0-0.2,0.2-0.4,0.4-0.4c0.2,0,0.4,0.2,0.4,0.4
		V20.1z"/>
	<path class="st4" d="M31.4,19.6c0.1,0.2,0,0.4-0.2,0.5c-0.2,0.1-0.4,0-0.5-0.2l-0.3-0.6c-0.1-0.2,0-0.4,0.2-0.5
		c0.2-0.1,0.4,0,0.5,0.2L31.4,19.6z"/>
	<path class="st2" d="M19.1,19c0,0.2-0.1,0.3-0.3,0.3h-1.5c-0.2,0-0.3-0.1-0.3-0.3c0-0.2,0.1-0.3,0.3-0.3h1.5
		C19,18.7,19.1,18.8,19.1,19"/>
	<g>
		<defs>
			<path id="SVGID_4_" d="M15.2,14.1c-1.8,0-2.6,0.2-3.1,0.8c-0.4,0.5-1.7,2.7-1.2,2.8c0.4,0,4.5,0,5.2,0.1L15.2,14.1z"/>
		</defs>
		<clipPath id="SVGID_5_">
			<use xlink:href="#SVGID_4_"  style="overflow:visible;"/>
		</clipPath>
		<linearGradient id="SVGID_6_" gradientUnits="userSpaceOnUse" x1="13.2303" y1="18.5218" x2="13.2303" y2="12.5429">
			<stop  offset="0" style="stop-color:#CCD5F4"/>
			<stop  offset="1" style="stop-color:#FDFDFD"/>
		</linearGradient>
		<rect x="10.4" y="14.1" class="st5" width="5.8" height="3.7"/>
	</g>
	<g>
		<defs>
			<path id="SVGID_7_" d="M15.2,14.1c-1.8,0-2.6,0.2-3.1,0.8c-0.4,0.5-1.7,2.7-1.2,2.8c0.4,0,4.5,0,5.2,0.1L15.2,14.1z"/>
		</defs>
		<clipPath id="SVGID_8_">
			<use xlink:href="#SVGID_7_"  style="overflow:visible;"/>
		</clipPath>
		<polygon class="st6" points="13.1,9 15.4,9 10,20.5 7.7,20.5 		"/>
		<polygon class="st6" points="16.8,9 17.8,9 12.3,20.5 11.3,20.5 		"/>
	</g>
	<g>
		<defs>
			<path id="SVGID_9_" d="M24.7,17.2c-0.8-1-2.5-2.5-2.8-2.7c-0.2-0.1-3.3-0.4-6.1-0.4l1,3.7c3,0.1,7.4,0.2,7.4,0.2
				C24.9,18,25.3,17.9,24.7,17.2"/>
		</defs>
		<clipPath id="SVGID_10_">
			<use xlink:href="#SVGID_9_"  style="overflow:visible;"/>
		</clipPath>
		<linearGradient id="SVGID_11_" gradientUnits="userSpaceOnUse" x1="20.5445" y1="18.7935" x2="20.5445" y2="12.4253">
			<stop  offset="0" style="stop-color:#CCD5F4"/>
			<stop  offset="1" style="stop-color:#FDFDFD"/>
		</linearGradient>
		<rect x="15.8" y="14.1" class="st7" width="9.4" height="3.9"/>
	</g>
	<g>
		<defs>
			<path id="SVGID_12_" d="M24.7,17.2c-0.8-1-2.5-2.5-2.8-2.7c-0.2-0.1-3.3-0.4-6.1-0.4l1,3.7c3,0.1,7.4,0.2,7.4,0.2
				C24.9,18,25.3,17.9,24.7,17.2"/>
		</defs>
		<clipPath id="SVGID_13_">
			<use xlink:href="#SVGID_12_"  style="overflow:visible;"/>
		</clipPath>
		<polygon class="st8" points="20.6,10.3 22.9,10.3 17.4,21.8 15.1,21.8 		"/>
		<polygon class="st8" points="24.2,10.3 25.2,10.3 19.8,21.8 18.8,21.8 		"/>
	</g>
	<path class="st9" d="M23.4,23.1c0-1.8,1.5-3.3,3.3-3.3c1.8,0,3.3,1.5,3.3,3.3c0,1.8-1.5,3.3-3.3,3.3C24.9,26.5,23.4,25,23.4,23.1"
		/>
	<path class="st10" d="M24.3,23.1c0-1.3,1.1-2.4,2.4-2.4c1.3,0,2.4,1.1,2.4,2.4c0,1.3-1.1,2.4-2.4,2.4
		C25.4,25.5,24.3,24.5,24.3,23.1"/>
	<path class="st11" d="M25,23.1c0-0.9,0.8-1.7,1.7-1.7c0.9,0,1.7,0.8,1.7,1.7c0,0.9-0.8,1.7-1.7,1.7C25.8,24.9,25,24.1,25,23.1"/>
	<path class="st10" d="M26,23.1c0-0.4,0.3-0.7,0.7-0.7c0.4,0,0.7,0.3,0.7,0.7c0,0.4-0.3,0.7-0.7,0.7C26.3,23.8,26,23.5,26,23.1"/>
	<path class="st9" d="M9,23.1c0-1.8,1.5-3.3,3.3-3.3c1.8,0,3.3,1.5,3.3,3.3c0,1.8-1.5,3.3-3.3,3.3C10.5,26.5,9,25,9,23.1"/>
	<path class="st10" d="M9.9,23.1c0-1.3,1.1-2.4,2.4-2.4c1.3,0,2.4,1.1,2.4,2.4c0,1.3-1.1,2.4-2.4,2.4C11,25.5,9.9,24.5,9.9,23.1"/>
	<path class="st11" d="M10.6,23.1c0-0.9,0.8-1.7,1.7-1.7c0.9,0,1.7,0.8,1.7,1.7c0,0.9-0.8,1.7-1.7,1.7
		C11.4,24.9,10.6,24.1,10.6,23.1"/>
	<path class="st10" d="M11.6,23.1c0-0.4,0.3-0.7,0.7-0.7c0.4,0,0.7,0.3,0.7,0.7c0,0.4-0.3,0.7-0.7,0.7
		C11.9,23.8,11.6,23.5,11.6,23.1"/>
</g>
</svg>
