<?xml version="1.0" encoding="utf-8"?>
<!-- Generator: Adobe Illustrator 25.3.1, SVG Export Plug-In . SVG Version: 6.00 Build 0)  -->
<svg version="1.1" id="Layer_1" xmlns="http://www.w3.org/2000/svg" xmlns:xlink="http://www.w3.org/1999/xlink" x="0px" y="0px"
	 width="40px" height="40px" viewBox="0 0 40 40" style="enable-background:new 0 0 40 40;" xml:space="preserve">
<style type="text/css">
	.st0{clip-path:url(#SVGID_2_);fill:url(#SVGID_3_);}
	.st1{fill:#D5D4D1;}
	.st2{fill:#006D77;}
	.st3{fill:#DAEEF5;}
	.st4{clip-path:url(#SVGID_5_);fill:url(#SVGID_6_);}
	.st5{fill:#FFEB9F;}
	.st6{fill:#FFFFFF;}
</style>
<g>
	<g>
		<defs>
			<path id="SVGID_1_" d="M10.4,27.4h19.2c0.3,0,0.5-0.2,0.5-0.5V13.1c0-0.3-0.2-0.5-0.5-0.5H10.4c-0.3,0-0.5,0.2-0.5,0.5v13.8
				C9.9,27.2,10.1,27.4,10.4,27.4"/>
		</defs>
		<clipPath id="SVGID_2_">
			<use xlink:href="#SVGID_1_"  style="overflow:visible;"/>
		</clipPath>
		<linearGradient id="SVGID_3_" gradientUnits="userSpaceOnUse" x1="20.0001" y1="27.3899" x2="20.0001" y2="6.0056">
			<stop  offset="0" style="stop-color:#008695"/>
			<stop  offset="1" style="stop-color:#31B28A"/>
		</linearGradient>
		<rect x="9.9" y="12.6" class="st0" width="20.3" height="14.9"/>
	</g>
	<path class="st1" d="M9.9,13.1v-0.5l0.5,0C10.1,12.6,9.9,12.8,9.9,13.1 M30.1,13.1L30.1,13.1c0-0.3-0.2-0.5-0.4-0.5l0.4,0V13.1z
		 M10.4,27.4H9.9v-0.5C9.9,27.2,10.1,27.4,10.4,27.4L10.4,27.4z"/>
	<path class="st2" d="M10.4,27.4L10.4,27.4c-0.3,0-0.5-0.2-0.5-0.5V13.1c0-0.3,0.2-0.5,0.5-0.5l19.3,0c0.3,0,0.4,0.3,0.4,0.5
		l-19.7,0L10.4,27.4L10.4,27.4z"/>
	<path class="st3" d="M18.5,20.8c-0.2,0-0.4-0.1-0.4-0.3c0-0.2,0.1-0.4,0.3-0.5c1-0.2,2-0.4,3-0.8c0.2-0.1,0.4,0.1,0.5,0.3
		c0.1,0.2-0.1,0.4-0.3,0.5C20.7,20.3,19.6,20.6,18.5,20.8L18.5,20.8z"/>
	<path class="st3" d="M19.9,21.9C19.9,21.9,19.9,21.9,19.9,21.9c-0.3-0.1-0.4-0.3-0.4-0.5c0.2-0.9,0.2-1.9-0.1-2.8
		c-0.1-0.2,0-0.4,0.3-0.5c0.2-0.1,0.4,0,0.5,0.3c0.3,1,0.4,2.2,0.1,3.3C20.3,21.8,20.1,21.9,19.9,21.9"/>
	<path class="st3" d="M25.3,23.6c-0.3,0-0.6-0.1-0.8-0.3c-0.4-0.3-0.6-0.9-0.5-1.5c0.3-2.2,0.2-4.4-0.4-6.3
		c-0.1-0.2,0.1-0.4,0.3-0.5c0.2-0.1,0.4,0.1,0.5,0.3c0.3,1.1,0.5,2.3,0.5,3.5c2.7-0.1,3.2,1.1,3.3,1.6c0.2,1.2-0.8,2.5-2.5,3.1
		C25.6,23.6,25.4,23.6,25.3,23.6 M25,19.6c0,0.8-0.1,1.5-0.2,2.3c0,0.3,0,0.6,0.2,0.7c0.1,0.1,0.3,0.1,0.5,0.1
		c1.4-0.5,2.1-1.5,2-2.2C27.4,19.9,26.4,19.6,25,19.6z"/>
	<path class="st3" d="M13.5,22.6c-0.6,0-1.1-0.3-1.4-0.8c-0.5-0.7-0.5-1.8-0.1-2.7c0.4-1,1.1-1.1,1.5-1.1c0.9,0,1.8,0.7,2.1,1.7
		c0.3,0.9,0,1.8-0.8,2.4C14.3,22.5,13.9,22.6,13.5,22.6 M13.5,18.9c-0.3,0-0.6,0.2-0.8,0.6c-0.3,0.6-0.2,1.4,0.1,1.9
		c0.1,0.2,0.4,0.5,0.7,0.5c0.2,0,0.5-0.1,0.8-0.3c0.7-0.5,0.6-1.1,0.5-1.5C14.6,19.4,14,18.9,13.5,18.9z"/>
	<path class="st3" d="M16.7,21.9c-0.5,0-0.9-0.2-1.1-0.4c-0.8-0.7-1.1-2.2-0.9-3.2c0-0.2,0.3-0.4,0.5-0.3c0.2,0,0.4,0.3,0.3,0.5
		c-0.2,0.8,0.1,1.9,0.6,2.4c0.3,0.2,0.6,0.3,1,0.2c0.2-0.1,0.4,0,0.5,0.3c0.1,0.2,0,0.4-0.3,0.5C17.1,21.9,16.9,21.9,16.7,21.9"/>
	<path class="st1" d="M28.6,27.8h-1.8c-0.2,0-0.4-0.2-0.5-0.4h2.9C29.1,27.6,28.9,27.8,28.6,27.8"/>
	<path class="st2" d="M29.1,27.4h-2.9c0,0,0-0.1,0-0.2v-0.5c0-0.3,0.2-0.5,0.5-0.5h1.8c0.3,0,0.5,0.2,0.5,0.5v0.5
		C29.2,27.3,29.2,27.4,29.1,27.4"/>
	<g>
		<defs>
			<path id="SVGID_4_" d="M29.6,28.5H10.4c-0.9,0-1.6-0.7-1.6-1.6V13.1c0-0.9,0.7-1.6,1.6-1.6h19.2c0.9,0,1.6,0.7,1.6,1.6v13.8
				C31.2,27.8,30.5,28.5,29.6,28.5 M10.4,12.6c-0.3,0-0.5,0.2-0.5,0.5v13.8c0,0.3,0.2,0.5,0.5,0.5h19.2c0.3,0,0.5-0.2,0.5-0.5V13.1
				c0-0.3-0.2-0.5-0.5-0.5H10.4z"/>
		</defs>
		<clipPath id="SVGID_5_">
			<use xlink:href="#SVGID_4_"  style="overflow:visible;"/>
		</clipPath>
		<linearGradient id="SVGID_6_" gradientUnits="userSpaceOnUse" x1="20" y1="28.5793" x2="20" y2="11.5125">
			<stop  offset="0" style="stop-color:#FB8A25"/>
			<stop  offset="1" style="stop-color:#F1B304"/>
		</linearGradient>
		<rect x="8.8" y="11.5" class="st4" width="22.4" height="17"/>
	</g>
	<path class="st5" d="M25.9,26.4c0-0.3,0.2-0.5,0.5-0.5h1.8c0.3,0,0.5,0.2,0.5,0.5v0.5c0,0.3-0.2,0.5-0.5,0.5h-1.8
		c-0.3,0-0.5-0.2-0.5-0.5V26.4z"/>
	<path class="st6" d="M9.1,13.7v-0.4c0-0.9,0.7-1.6,1.6-1.6h18.7c0.9,0,1.6,0.7,1.6,1.6v0.4c0-0.9-0.7-1.6-1.6-1.6H10.6
		C9.8,12.1,9.1,12.8,9.1,13.7 M9.7,27c0,0.3,0.2,0.5,0.5,0.5h19.5c0.3,0,0.5-0.2,0.5-0.5v0.4c0,0.3-0.2,0.5-0.5,0.5H10.2
		c-0.3,0-0.5-0.2-0.5-0.5V27z"/>
</g>
</svg>
