<?xml version="1.0" encoding="utf-8"?>
<!-- Generator: Adobe Illustrator 25.3.1, SVG Export Plug-In . SVG Version: 6.00 Build 0)  -->
<svg version="1.1" id="Layer_1" xmlns="http://www.w3.org/2000/svg" xmlns:xlink="http://www.w3.org/1999/xlink" x="0px" y="0px"
	 width="40px" height="40px" viewBox="0 0 40 40" style="enable-background:new 0 0 40 40;" xml:space="preserve">
<style type="text/css">
	.st0{clip-path:url(#SVGID_2_);fill:url(#SVGID_3_);}
	.st1{fill-rule:evenodd;clip-rule:evenodd;fill:#8F0021;}
	.st2{opacity:0.2;fill-rule:evenodd;clip-rule:evenodd;enable-background:new    ;}
	.st3{fill-rule:evenodd;clip-rule:evenodd;}
	.st4{clip-path:url(#SVGID_5_);fill:url(#SVGID_6_);}
	.st5{clip-path:url(#SVGID_8_);fill:url(#SVGID_9_);}
	.st6{opacity:0.5;fill-rule:evenodd;clip-rule:evenodd;fill:#8F0021;enable-background:new    ;}
	.st7{opacity:0.5;fill-rule:evenodd;clip-rule:evenodd;fill:#FFFFFF;enable-background:new    ;}
</style>
<g>
	<g>
		<g>
			<defs>
				<path id="SVGID_1_" d="M12.8,18.4c0,0-1.3-4.3,0-6.3c1.3-1.9,3.9-0.7,3.9-0.7L15,14.5L12.8,18.4z"/>
			</defs>
			<clipPath id="SVGID_2_">
				<use xlink:href="#SVGID_1_"  style="overflow:visible;"/>
			</clipPath>
			
				<linearGradient id="SVGID_3_" gradientUnits="userSpaceOnUse" x1="13.8698" y1="24.0642" x2="14.4324" y2="31.6207" gradientTransform="matrix(1 0 0 -1 0 42)">
				<stop  offset="0" style="stop-color:#8F0021"/>
				<stop  offset="1" style="stop-color:#CD0033"/>
			</linearGradient>
			<rect x="11.5" y="10.2" class="st0" width="5.2" height="8.1"/>
		</g>
	</g>
	<path class="st1" d="M15.6,11.1c0.6,0.1,1,0.3,1,0.3l-1.7,3.1l-0.6,1c0-1.4,0.1-3,0.9-4.1C15.4,11.4,15.5,11.2,15.6,11.1"/>
	<path class="st1" d="M12.9,19.8l7.5,7.1l-4.4,3.9c-0.3,0.3-0.7,0.5-1.2,0.5s-0.8-0.2-1.2-0.5l-4.9-5.3c-0.6-0.6-0.6-1.6,0.1-2.2
		L12.9,19.8z"/>
	<path class="st2" d="M18.3,24.8l2.2,2.1l-4.4,3.9c-0.3,0.3-0.7,0.5-1.2,0.5s-0.8-0.2-1.2-0.5l-0.9-0.9L18.3,24.8z"/>
	<polygon class="st3" points="12.9,19.8 20.5,26.9 18.5,28.8 11.4,21.3 	"/>
	<g>
		<g>
			<defs>
				<path id="SVGID_4_" d="M12.7,19.5c-0.6-1.2,2.1-5.7,3.9-8.1c0.6-0.7,1-1.2,1.3-1.4c1.5-1,5.1-2.4,8.2,0.2c3.1,2.6,6,5.7,5.1,9.1
					c-0.5,1.6-2.1,3.4-3.9,4.6c-1.9,1.4-3.9,2.4-4.9,2.8c-1.9,0.6-2.1,0.3-2.9,0C18.8,26.4,12.7,19.5,12.7,19.5"/>
			</defs>
			<clipPath id="SVGID_5_">
				<use xlink:href="#SVGID_4_"  style="overflow:visible;"/>
			</clipPath>
			
				<linearGradient id="SVGID_6_" gradientUnits="userSpaceOnUse" x1="18.1392" y1="19.7232" x2="27.6492" y2="31.1642" gradientTransform="matrix(1 0 0 -1 0 42)">
				<stop  offset="0" style="stop-color:#CD0033"/>
				<stop  offset="1" style="stop-color:#FD822F"/>
			</linearGradient>
			<rect x="12.1" y="7.6" class="st4" width="20.1" height="19.7"/>
		</g>
	</g>
	<g>
		<g>
			<defs>
				<path id="SVGID_7_" d="M12.1,21l7,7.8l-2.6,2.3l-7-7.9c-0.3-0.3-0.2-0.9,0.1-1.3l1.2-1C11.2,20.7,11.8,20.7,12.1,21"/>
			</defs>
			<clipPath id="SVGID_8_">
				<use xlink:href="#SVGID_7_"  style="overflow:visible;"/>
			</clipPath>
			
				<linearGradient id="SVGID_9_" gradientUnits="userSpaceOnUse" x1="17.2191" y1="12.1946" x2="8.226" y2="23.7422" gradientTransform="matrix(1 0 0 -1 0 42)">
				<stop  offset="0" style="stop-color:#CD0033"/>
				<stop  offset="1" style="stop-color:#FD822F"/>
			</linearGradient>
			<rect x="9.3" y="20.7" class="st5" width="9.8" height="10.5"/>
		</g>
	</g>
	<polygon class="st6" points="17.3,27 19.1,28.8 16.4,31 14.8,29.2 	"/>
	<path class="st7" d="M23,10.2l4.4,4.2c0.9,0.9,0.9,2.3,0.1,3.3c-0.9,0.9-2.3,0.9-3.3,0.1l-4.4-4.2c-0.9-0.9-0.9-2.3-0.1-3.3
		C20.6,9.4,22.1,9.4,23,10.2"/>
	<path class="st6" d="M12.7,19.5c-0.2-0.3-0.1-1,0.2-1.9c1.6,1.7,5.6,6.2,6.3,6.4c0.8,0.3,1,0.7,2.9,0c0.9-0.3,3-1.4,4.9-2.8
		c1.9-1.4,3.5-3,3.9-4.6c0.1-0.3,0.1-0.6,0.1-0.9c0.5,1.2,0.6,2.2,0.3,3.5c-0.5,1.6-2.1,3.4-3.9,4.6c-1.9,1.4-3.9,2.4-4.9,2.8
		c-1.9,0.6-2.1,0.3-2.9,0C18.8,26.4,12.7,19.5,12.7,19.5"/>
	<path class="st7" d="M12.1,21l7,7.8l-0.2,0.2l-6.7-7.5c-0.5-0.3-1-0.3-1.4-0.1l-1.2,1c-0.1,0.1-0.2,0.2-0.2,0.3
		c0-0.2,0.1-0.6,0.3-0.8l1.2-1C11.2,20.7,11.8,20.7,12.1,21"/>
</g>
</svg>
