<?xml version="1.0" encoding="utf-8"?>
<!-- Generator: Adobe Illustrator 25.3.1, SVG Export Plug-In . SVG Version: 6.00 Build 0)  -->
<svg version="1.1" id="Layer_1" xmlns="http://www.w3.org/2000/svg" xmlns:xlink="http://www.w3.org/1999/xlink" x="0px" y="0px"
	 width="40px" height="40px" viewBox="0 0 40 40" style="enable-background:new 0 0 40 40;" xml:space="preserve">
<style type="text/css">
	.st0{clip-path:url(#SVGID_2_);fill:url(#SVGID_3_);}
	.st1{fill-rule:evenodd;clip-rule:evenodd;fill:#324251;}
	.st2{opacity:0.3;fill-rule:evenodd;clip-rule:evenodd;fill:#FFFFFF;}
	.st3{filter:url(#Adobe_OpacityMaskFilter);}
	.st4{fill:url(#SVGID_5_);}
	.st5{mask:url(#SVGID_4_);fill-rule:evenodd;clip-rule:evenodd;}
	.st6{clip-path:url(#SVGID_7_);fill:url(#SVGID_8_);}
	.st7{filter:url(#Adobe_OpacityMaskFilter_1_);}
	.st8{fill:url(#SVGID_10_);}
	.st9{mask:url(#SVGID_9_);fill-rule:evenodd;clip-rule:evenodd;}
	.st10{clip-path:url(#SVGID_12_);fill:url(#SVGID_13_);}
	.st11{fill-rule:evenodd;clip-rule:evenodd;fill:#D77D08;}
	.st12{fill:#1B2B3A;}
	.st13{clip-path:url(#SVGID_15_);fill:url(#SVGID_16_);}
	.st14{fill-rule:evenodd;clip-rule:evenodd;fill:#1B2B3A;}
	.st15{opacity:0.2;fill-rule:evenodd;clip-rule:evenodd;}
	.st16{clip-path:url(#SVGID_18_);fill:url(#SVGID_19_);}
	.st17{clip-path:url(#SVGID_21_);fill:url(#SVGID_22_);}
	.st18{fill-rule:evenodd;clip-rule:evenodd;fill:#BC6F06;}
	.st19{clip-path:url(#SVGID_24_);fill:url(#SVGID_25_);}
	.st20{filter:url(#Adobe_OpacityMaskFilter_2_);}
	.st21{fill:url(#SVGID_27_);}
	.st22{mask:url(#SVGID_26_);fill-rule:evenodd;clip-rule:evenodd;fill:#784D21;}
	.st23{opacity:0.5;fill-rule:evenodd;clip-rule:evenodd;fill:#1B2B3A;}
</style>
<g>
	<g>
		<defs>
			<path id="SVGID_1_" d="M23.9,11.7l1.9-1.9c0.3-0.3,0.8-0.5,1.2-0.4l1.8,0.3l-3.8,3.8L23.9,11.7z"/>
		</defs>
		<clipPath id="SVGID_2_">
			<use xlink:href="#SVGID_1_"  style="overflow:visible;"/>
		</clipPath>
		<linearGradient id="SVGID_3_" gradientUnits="userSpaceOnUse" x1="26.7698" y1="11.7968" x2="25.3048" y2="10.3317">
			<stop  offset="0" style="stop-color:#324251"/>
			<stop  offset="1" style="stop-color:#485867"/>
		</linearGradient>
		<rect x="23.9" y="9.3" class="st0" width="5" height="4.2"/>
	</g>
	<path class="st1" d="M25.6,10.1l0.3-0.3c0.3-0.3,0.8-0.5,1.2-0.4l1.8,0.3l-0.7,0.7L25.6,10.1z"/>
	<path class="st2" d="M22.6,13.4l3.7-3.7c0.1-0.1,0.3-0.1,0.4,0l0,0c0.1,0.1,0.1,0.3,0,0.4L23,13.8c-0.1,0.1-0.3,0.1-0.4,0l0,0
		C22.5,13.7,22.5,13.5,22.6,13.4"/>
	<defs>
		<filter id="Adobe_OpacityMaskFilter" filterUnits="userSpaceOnUse" x="24.4" y="10.6" width="1.9" height="1.9">
			<feColorMatrix  type="matrix" values="1 0 0 0 0  0 1 0 0 0  0 0 1 0 0  0 0 0 1 0"/>
		</filter>
	</defs>
	<mask maskUnits="userSpaceOnUse" x="24.4" y="10.6" width="1.9" height="1.9" id="SVGID_4_">
		<g class="st3">
			
				<linearGradient id="SVGID_5_" gradientUnits="userSpaceOnUse" x1="-158.3567" y1="459.1593" x2="-157.4203" y2="458.2153" gradientTransform="matrix(1 0 0 1 183.0283 -446.9879)">
				<stop  offset="0" style="stop-color:#FFFFFF"/>
				<stop  offset="1" style="stop-color:#000000"/>
			</linearGradient>
			<rect x="24.4" y="10.6" class="st4" width="1.9" height="1.9"/>
		</g>
	</mask>
	<rect x="24.9" y="10.6" transform="matrix(0.7071 -0.7071 0.7071 0.7071 -0.6972 21.2912)" class="st5" width="0.9" height="1.8"/>
	<g>
		<defs>
			<path id="SVGID_6_" d="M25.6,12.5l4-4c0.2-0.2,0.4-0.2,0.6,0l0.5,0.5c0.2,0.2,0.2,0.4,0,0.6l-4,4c-0.2,0.2-0.4,0.2-0.6,0
				l-0.5-0.5C25.4,13,25.4,12.7,25.6,12.5"/>
		</defs>
		<clipPath id="SVGID_7_">
			<use xlink:href="#SVGID_6_"  style="overflow:visible;"/>
		</clipPath>
		<linearGradient id="SVGID_8_" gradientUnits="userSpaceOnUse" x1="28.6969" y1="11.7048" x2="27.5415" y2="10.5493">
			<stop  offset="0" style="stop-color:#324251"/>
			<stop  offset="1" style="stop-color:#485867"/>
		</linearGradient>
		<rect x="25.4" y="8.4" class="st6" width="5.5" height="5.5"/>
	</g>
	<path class="st1" d="M30.7,9.1L30.7,9.1c0.2,0.2,0.2,0.4,0,0.6l-4,4c-0.2,0.2-0.4,0.2-0.6,0l0,0L30.7,9.1z"/>
	<path class="st2" d="M25.8,12.6l3.7-3.7c0.1-0.1,0.3-0.1,0.4,0l0,0c0.1,0.1,0.1,0.3,0,0.4L26.2,13c-0.1,0.1-0.3,0.1-0.4,0l0,0
		C25.7,12.9,25.7,12.7,25.8,12.6"/>
	<defs>
		<filter id="Adobe_OpacityMaskFilter_1_" filterUnits="userSpaceOnUse" x="25.6" y="11.8" width="1.9" height="1.9">
			<feColorMatrix  type="matrix" values="1 0 0 0 0  0 1 0 0 0  0 0 1 0 0  0 0 0 1 0"/>
		</filter>
	</defs>
	<mask maskUnits="userSpaceOnUse" x="25.6" y="11.8" width="1.9" height="1.9" id="SVGID_9_">
		<g class="st7">
			
				<linearGradient id="SVGID_10_" gradientUnits="userSpaceOnUse" x1="-158.638" y1="458.6563" x2="-157.6714" y2="457.6822" gradientTransform="matrix(1 0 0 1 184.5309 -445.2902)">
				<stop  offset="0" style="stop-color:#FFFFFF"/>
				<stop  offset="1" style="stop-color:#000000"/>
			</linearGradient>
			<rect x="25.6" y="11.8" class="st8" width="1.9" height="1.9"/>
		</g>
	</mask>
	<rect x="26" y="11.9" transform="matrix(0.7071 -0.7071 0.7071 0.7071 -1.2596 22.4739)" class="st9" width="1" height="1.6"/>
	<g>
		<defs>
			<path id="SVGID_11_" d="M13.9,23.4l-4.5,4.5c-0.3,0.3-0.3,0.9,0,1.2l2.2,2.2c0.2,0.2,0.5,0.3,0.7,0.2c0.3,0,0.5-0.2,0.6-0.5
				l3.1-5.5L13.9,23.4z"/>
		</defs>
		<clipPath id="SVGID_12_">
			<use xlink:href="#SVGID_11_"  style="overflow:visible;"/>
		</clipPath>
		<linearGradient id="SVGID_13_" gradientUnits="userSpaceOnUse" x1="14.6834" y1="29.5396" x2="10.8697" y2="25.7259">
			<stop  offset="0" style="stop-color:#FB8A25"/>
			<stop  offset="1" style="stop-color:#F1B304"/>
		</linearGradient>
		<rect x="9.1" y="23.4" class="st10" width="7" height="8.2"/>
	</g>
	<path class="st11" d="M11.4,31l0.3,0.3c0.2,0.2,0.5,0.3,0.7,0.2c0.3,0,0.5-0.2,0.6-0.5l3.1-5.5l-0.9-0.9L11.4,31z"/>
	<path class="st12" d="M18.8,25.6l1.9-1.9c0.3-0.3,0.5-0.6,0.5-0.9c0-0.2,0-0.4-0.2-0.6l-1.1-1.1l0.4-0.4l1.1,1.1
		c0.3,0.3,0.5,0.7,0.4,1.1c-0.1,0.4-0.3,0.7-0.7,1.2L19.2,26L18.8,25.6z"/>
	<path class="st12" d="M18.4,23c-0.1-0.1,0-0.3,0.1-0.4c0.1-0.1,0.3,0,0.4,0.1c0,0,0.5,0.8,1.4-0.1c0.1-0.1,0.3-0.1,0.4,0
		c0.1,0.1,0.1,0.3,0,0.4C19.3,24.6,18.4,23,18.4,23"/>
	<g>
		<defs>
			<path id="SVGID_14_" d="M21.7,20c1.7,2.2,5.5,2.2,7.4,0.4c0.3-0.3,0.2-0.5,0-0.7l-0.7-0.7c-0.2-0.2-0.5-0.2-0.7,0
				c-0.4,0.3-1.3,0.8-2.7,0.6c-1.9-0.4-2.3-1.6-2.3-1.6L21.7,20z"/>
		</defs>
		<clipPath id="SVGID_15_">
			<use xlink:href="#SVGID_14_"  style="overflow:visible;"/>
		</clipPath>
		<linearGradient id="SVGID_16_" gradientUnits="userSpaceOnUse" x1="26.081" y1="20.5358" x2="23.6267" y2="18.0815">
			<stop  offset="0" style="stop-color:#324251"/>
			<stop  offset="1" style="stop-color:#1B2B3A"/>
		</linearGradient>
		<rect x="21.7" y="17.9" class="st13" width="7.7" height="4.3"/>
	</g>
	<path class="st14" d="M28.8,20.7c0.1-0.1,0.3-0.2,0.4-0.3c0.3-0.3,0.2-0.5,0-0.7l-0.7-0.7c-0.2-0.2-0.5-0.2-0.7,0
		c-0.1,0.1-0.2,0.2-0.4,0.3L28.8,20.7z"/>
	<path class="st15" d="M21.7,20c1.7,2.2,5.5,2.2,7.4,0.4c0.3-0.3,0.2-0.5,0-0.7l0,0c-1.8,1.8-5.4,1.8-7.2-0.2L21.7,20z"/>
	<g>
		<defs>
			<path id="SVGID_17_" d="M13.6,20.9l6.8-6.8l3.6,3.6l-7.8,7.8L13.6,23C13,22.4,13,21.5,13.6,20.9"/>
		</defs>
		<clipPath id="SVGID_18_">
			<use xlink:href="#SVGID_17_"  style="overflow:visible;"/>
		</clipPath>
		<linearGradient id="SVGID_19_" gradientUnits="userSpaceOnUse" x1="20.1588" y1="21.4969" x2="16.5792" y2="17.9098">
			<stop  offset="0" style="stop-color:#324251"/>
			<stop  offset="1" style="stop-color:#485867"/>
		</linearGradient>
		<rect x="13" y="14.1" class="st16" width="11" height="11.5"/>
	</g>
	<path class="st2" d="M13.7,21.5l6.4-6.4c0.2-0.2,0.5-0.2,0.7,0l0,0c0.2,0.2,0.2,0.5,0,0.7l-6.4,6.4c-0.2,0.2-0.5,0.2-0.7,0l0,0
		C13.5,21.9,13.5,21.6,13.7,21.5"/>
	<path class="st1" d="M14.5,20l4.2-4.2l0.8,0.8c0.2,0.2,0.2,0.6,0,0.8l-3.3,3.3c-0.2,0.2-0.6,0.2-0.8,0L14.5,20z"/>
	<g>
		<defs>
			<path id="SVGID_20_" d="M23,11.5l-2.6,2.6l3.6,3.6l2.6-2.6c0.6-0.6,0.6-1.5,0-2L25,11.5C24.5,11,23.5,11,23,11.5"/>
		</defs>
		<clipPath id="SVGID_21_">
			<use xlink:href="#SVGID_20_"  style="overflow:visible;"/>
		</clipPath>
		<linearGradient id="SVGID_22_" gradientUnits="userSpaceOnUse" x1="25.585" y1="16.1533" x2="21.5901" y2="12.1584">
			<stop  offset="0" style="stop-color:#FB8A25"/>
			<stop  offset="1" style="stop-color:#F1B304"/>
		</linearGradient>
		<rect x="20.4" y="11" class="st17" width="6.8" height="6.8"/>
	</g>
	<path class="st11" d="M22.8,16.6l1.2,1.2l2.6-2.6c0.6-0.6,0.6-1.5,0-2L26.4,13L22.8,16.6z"/>
	<path class="st18" d="M24.7,17l0.7-0.7l-1.7-1.7c-0.2-0.2-0.5-0.2-0.7,0c-0.2,0.2-0.2,0.5,0,0.7L24.7,17z"/>
	<path class="st18" d="M25.8,15.9l0.7-0.7l-1.7-1.7c-0.2-0.2-0.5-0.2-0.7,0l0,0c-0.2,0.2-0.2,0.5,0,0.7L25.8,15.9z"/>
	<g>
		<defs>
			<path id="SVGID_23_" d="M16.7,25l2.3,3.9c0.1,0.2,0.4,0.4,0.6,0.4c0.3,0,0.5,0,0.7-0.2l0.4-0.4c0.3-0.3,0.3-0.7,0.1-1.1l-2.5-4.3
				L16.7,25z"/>
		</defs>
		<clipPath id="SVGID_24_">
			<use xlink:href="#SVGID_23_"  style="overflow:visible;"/>
		</clipPath>
		<linearGradient id="SVGID_25_" gradientUnits="userSpaceOnUse" x1="17.4889" y1="24.0642" x2="19.2787" y2="26.9943">
			<stop  offset="0" style="stop-color:#FB8A25"/>
			<stop  offset="1" style="stop-color:#F1B304"/>
		</linearGradient>
		<rect x="16.7" y="23.3" class="st19" width="4.4" height="6.1"/>
	</g>
	<path class="st11" d="M20.8,28.7c0.3-0.3,0.3-0.7,0.1-1.1l-2.5-4.3l-0.5,0.5L20.8,28.7z"/>
	<defs>
		<filter id="Adobe_OpacityMaskFilter_2_" filterUnits="userSpaceOnUse" x="12.6" y="23.4" width="3.5" height="3.9">
			<feColorMatrix  type="matrix" values="1 0 0 0 0  0 1 0 0 0  0 0 1 0 0  0 0 0 1 0"/>
		</filter>
	</defs>
	<mask maskUnits="userSpaceOnUse" x="12.6" y="23.4" width="3.5" height="3.9" id="SVGID_26_">
		<g class="st20">
			
				<linearGradient id="SVGID_27_" gradientUnits="userSpaceOnUse" x1="-151.6938" y1="451.3287" x2="-153.5516" y2="453.1789" gradientTransform="matrix(1 0 0 1 167.4184 -427.3611)">
				<stop  offset="0" style="stop-color:#FFFFFF"/>
				<stop  offset="1" style="stop-color:#000000"/>
			</linearGradient>
			<rect x="12.6" y="23.4" class="st21" width="3.5" height="3.9"/>
		</g>
	</mask>
	<polygon class="st22" points="13.9,23.4 16.1,25.6 15.2,27.2 12.6,24.7 	"/>
	<path class="st2" d="M9.9,27.9l3.7-3.7c0.2-0.2,0.5-0.2,0.7,0l0,0c0.2,0.2,0.2,0.5,0,0.7l-3.7,3.7c-0.2,0.2-0.5,0.2-0.7,0l0,0
		C9.7,28.4,9.7,28.1,9.9,27.9"/>
	<rect x="13.9" y="20.2" transform="matrix(0.7071 -0.7071 0.7071 0.7071 -9.18 19.9513)" class="st23" width="11.1" height="1.6"/>
	<path class="st2" d="M15.4,19.7l3.1-3.1c0.2-0.2,0.5-0.2,0.7,0l0,0c0.2,0.2,0.2,0.5,0,0.7L16,20.4c-0.2,0.2-0.5,0.2-0.7,0l0,0
		C15.2,20.2,15.2,19.9,15.4,19.7"/>
	<path class="st2" d="M21.3,13.8l2.1-2.1c0.2-0.2,0.5-0.2,0.7,0l0,0c0.2,0.2,0.2,0.5,0,0.7L22,14.5c-0.2,0.2-0.5,0.2-0.7,0l0,0
		C21.1,14.3,21.1,14,21.3,13.8"/>
</g>
</svg>
