<?xml version="1.0" encoding="utf-8"?>
<!-- Generator: Adobe Illustrator 25.3.1, SVG Export Plug-In . SVG Version: 6.00 Build 0)  -->
<svg version="1.1" id="Layer_1" xmlns="http://www.w3.org/2000/svg" xmlns:xlink="http://www.w3.org/1999/xlink" x="0px" y="0px"
	 width="40px" height="40px" viewBox="0 0 40 40" style="enable-background:new 0 0 40 40;" xml:space="preserve">
<style type="text/css">
	.st0{clip-path:url(#SVGID_2_);fill:url(#SVGID_3_);}
	.st1{clip-path:url(#SVGID_5_);fill:url(#SVGID_6_);}
	.st2{clip-path:url(#SVGID_8_);fill:url(#SVGID_9_);}
	.st3{clip-path:url(#SVGID_11_);fill:url(#SVGID_12_);}
	.st4{clip-path:url(#SVGID_14_);fill:url(#SVGID_15_);}
	.st5{clip-path:url(#SVGID_17_);fill:url(#SVGID_18_);}
</style>
<g>
	<g>
		<defs>
			<path id="SVGID_1_" d="M26.6,24c2.1-0.6,3.4-1.5,4.5-2.9c0.7-0.9,0.9-2.2,0.8-3.1c-0.2-2.2-2.8-2-2.9-0.5c-0.1,1.6-1.1,2.7-2,2.7
				c-0.8,0.1-0.9,0.1-0.9,0.1L26.6,24z"/>
		</defs>
		<clipPath id="SVGID_2_">
			<use xlink:href="#SVGID_1_"  style="overflow:visible;"/>
		</clipPath>
		<linearGradient id="SVGID_3_" gradientUnits="userSpaceOnUse" x1="26.8436" y1="22.8679" x2="31.9429" y2="15.8874">
			<stop  offset="0" style="stop-color:#7587CC"/>
			<stop  offset="1" style="stop-color:#FDFDFD"/>
		</linearGradient>
		<rect x="26.1" y="15.7" class="st0" width="5.9" height="8.2"/>
	</g>
	<g>
		<defs>
			<path id="SVGID_4_" d="M13.4,24c-2.1-0.6-3.4-1.5-4.5-2.9c-0.7-0.9-0.9-2.1-0.8-3c0.1-2.3,2.8-2.1,2.9-0.6c0.1,1.6,1.1,2.7,2,2.7
				c0.8,0.1,0.9,0.1,0.9,0.1L13.4,24z"/>
		</defs>
		<clipPath id="SVGID_5_">
			<use xlink:href="#SVGID_4_"  style="overflow:visible;"/>
		</clipPath>
		<linearGradient id="SVGID_6_" gradientUnits="userSpaceOnUse" x1="13.1775" y1="22.8553" x2="7.9724" y2="15.7465">
			<stop  offset="0" style="stop-color:#7587CC"/>
			<stop  offset="1" style="stop-color:#FDFDFD"/>
		</linearGradient>
		<rect x="8" y="15.7" class="st1" width="5.9" height="8.3"/>
	</g>
	<g>
		<defs>
			<path id="SVGID_7_" d="M19.3,9.6h1.4c3.7,0,6.7,3.2,6.7,7.2v13.6h-0.6c-0.5,0-1-0.3-1.2-0.8c-0.2-0.4-0.6-0.7-1-0.7h-0.1
				c-0.5,0-0.8,0.3-1,0.7c-0.2,0.5-0.6,0.8-1.2,0.8h-0.1c-0.5,0-1-0.3-1.2-0.8c-0.2-0.4-0.6-0.7-1-0.7h-0.1c-0.5,0-0.8,0.3-1,0.7
				c-0.2,0.5-0.6,0.8-1.2,0.8h-0.1c-0.5,0-1-0.3-1.2-0.8c-0.2-0.4-0.6-0.7-1-0.7h-0.1c-0.5,0-0.8,0.3-1,0.7
				c-0.2,0.5-0.6,0.8-1.2,0.8h-0.6V16.8C12.6,12.8,15.6,9.6,19.3,9.6"/>
		</defs>
		<clipPath id="SVGID_8_">
			<use xlink:href="#SVGID_7_"  style="overflow:visible;"/>
		</clipPath>
		<linearGradient id="SVGID_9_" gradientUnits="userSpaceOnUse" x1="20.0059" y1="30.5586" x2="20.0059" y2="12.0726">
			<stop  offset="0" style="stop-color:#8B9CD4"/>
			<stop  offset="1" style="stop-color:#E5EBFB"/>
		</linearGradient>
		<rect x="12.6" y="9.6" class="st2" width="14.8" height="20.7"/>
	</g>
	<g>
		<defs>
			<path id="SVGID_10_" d="M16.6,17.2c0.7,0,1.2-0.5,1.2-1.2c0-0.7-0.5-1.2-1.2-1.2c-0.7,0-1.2,0.5-1.2,1.2
				C15.4,16.6,16,17.2,16.6,17.2"/>
		</defs>
		<clipPath id="SVGID_11_">
			<use xlink:href="#SVGID_10_"  style="overflow:visible;"/>
		</clipPath>
		<linearGradient id="SVGID_12_" gradientUnits="userSpaceOnUse" x1="16.6185" y1="16.3636" x2="16.6185" y2="14.7847">
			<stop  offset="0" style="stop-color:#7587CC"/>
			<stop  offset="1" style="stop-color:#485867"/>
		</linearGradient>
		<rect x="15.4" y="14.8" class="st3" width="2.4" height="2.4"/>
	</g>
	<g>
		<defs>
			<path id="SVGID_13_" d="M22.2,16c0,0.7,0.5,1.2,1.2,1.2c0.7,0,1.2-0.5,1.2-1.2c0-0.7-0.5-1.2-1.2-1.2
				C22.7,14.8,22.2,15.3,22.2,16"/>
		</defs>
		<clipPath id="SVGID_14_">
			<use xlink:href="#SVGID_13_"  style="overflow:visible;"/>
		</clipPath>
		<linearGradient id="SVGID_15_" gradientUnits="userSpaceOnUse" x1="23.393" y1="16.4693" x2="23.393" y2="14.7847">
			<stop  offset="0" style="stop-color:#7587CC"/>
			<stop  offset="1" style="stop-color:#485867"/>
		</linearGradient>
		<rect x="22.2" y="14.8" class="st4" width="2.4" height="2.4"/>
	</g>
	<g>
		<defs>
			<path id="SVGID_16_" d="M21.4,20.3c0-1.1-0.5-2-1.2-2c-0.7,0-1.2,0.9-1.2,2c0,1.1,0.5,2,1.2,2C20.8,22.3,21.4,21.4,21.4,20.3"/>
		</defs>
		<clipPath id="SVGID_17_">
			<use xlink:href="#SVGID_16_"  style="overflow:visible;"/>
		</clipPath>
		<linearGradient id="SVGID_18_" gradientUnits="userSpaceOnUse" x1="20.1667" y1="20.738" x2="20.1743" y2="18.2525">
			<stop  offset="0" style="stop-color:#7587CC"/>
			<stop  offset="1" style="stop-color:#485867"/>
		</linearGradient>
		<rect x="19" y="18.3" class="st5" width="2.4" height="4"/>
	</g>
</g>
</svg>
