<?xml version="1.0" encoding="utf-8"?>
<!-- Generator: Adobe Illustrator 25.3.1, SVG Export Plug-In . SVG Version: 6.00 Build 0)  -->
<svg version="1.1" id="Layer_1" xmlns="http://www.w3.org/2000/svg" xmlns:xlink="http://www.w3.org/1999/xlink" x="0px" y="0px"
	 width="40px" height="40px" viewBox="0 0 40 40" style="enable-background:new 0 0 40 40;" xml:space="preserve">
<style type="text/css">
	.st0{fill:#8F0021;}
	.st1{fill:#005C9D;}
	.st2{fill:#FB8A25;}
	.st3{clip-path:url(#SVGID_2_);fill:url(#SVGID_3_);}
	.st4{opacity:0.5;fill-rule:evenodd;clip-rule:evenodd;fill:#FFFFFF;}
	.st5{fill:#E14435;}
	.st6{clip-path:url(#SVGID_5_);fill:url(#SVGID_6_);}
	.st7{fill:#FFE449;}
	.st8{clip-path:url(#SVGID_8_);fill:url(#SVGID_9_);}
	.st9{opacity:0.3;fill-rule:evenodd;clip-rule:evenodd;fill:#FFFFFF;}
	.st10{fill:#FFFFFF;}
</style>
<g>
	<path class="st0" d="M20.3,20h4.3c0.7,0,1.2-0.5,1.2-1.2v-7.1c0-0.7-0.5-1.2-1.2-1.2h-4.3c-0.7,0-1.2,0.5-1.2,1.2v7.1
		C19.1,19.5,19.6,20,20.3,20"/>
	<path class="st1" d="M26.2,29.5h3.4c0.7,0,1.2-0.5,1.2-1.2v-7.1c0-0.7-0.5-1.2-1.2-1.2h-3.4c-0.7,0-1.2,0.5-1.2,1.2v7.1
		C24.9,29,25.5,29.5,26.2,29.5"/>
	<path class="st2" d="M16.7,29.5h3c0.7,0,1.2-0.5,1.2-1.2v-7.1c0-0.7-0.5-1.2-1.2-1.2h-3c-0.7,0-1.2,0.5-1.2,1.2v7.1
		C15.5,29,16,29.5,16.7,29.5"/>
	<g>
		<defs>
			<path id="SVGID_1_" d="M10.4,29.5h6.3c0.7,0,1.2-0.5,1.2-1.2v-7.1c0-0.7-0.5-1.2-1.2-1.2h-6.3c-0.7,0-1.2,0.5-1.2,1.2v7.1
				C9.2,29,9.7,29.5,10.4,29.5"/>
		</defs>
		<clipPath id="SVGID_2_">
			<use xlink:href="#SVGID_1_"  style="overflow:visible;"/>
		</clipPath>
		<linearGradient id="SVGID_3_" gradientUnits="userSpaceOnUse" x1="13.5468" y1="31.7651" x2="13.5468" y2="22.4467">
			<stop  offset="0" style="stop-color:#FB8A25"/>
			<stop  offset="1" style="stop-color:#FFCB00"/>
		</linearGradient>
		<rect x="9.2" y="20" class="st3" width="8.7" height="9.5"/>
	</g>
	<path class="st4" d="M11.1,28.5H16c0.5,0,1-0.4,1-1V22c0-0.5-0.4-1-1-1h-4.9c-0.5,0-1,0.4-1,1v5.5C10.1,28.1,10.6,28.5,11.1,28.5"
		/>
	<path class="st5" d="M15.2,27.8l-0.5-1.3h-2.3l-0.5,1.3h-1.3l2.4-6h1.2l2.4,6H15.2z M13.6,23.5l-0.7,1.7h1.4L13.6,23.5z"/>
	<g>
		<defs>
			<path id="SVGID_4_" d="M15.3,20h6.3c0.7,0,1.2-0.5,1.2-1.2v-7.1c0-0.7-0.5-1.2-1.2-1.2h-6.3c-0.7,0-1.2,0.5-1.2,1.2v7.1
				C14.1,19.5,14.7,20,15.3,20"/>
		</defs>
		<clipPath id="SVGID_5_">
			<use xlink:href="#SVGID_4_"  style="overflow:visible;"/>
		</clipPath>
		<linearGradient id="SVGID_6_" gradientUnits="userSpaceOnUse" x1="18.4793" y1="20.7403" x2="18.4793" y2="10.4783">
			<stop  offset="0" style="stop-color:#CD0033"/>
			<stop  offset="1" style="stop-color:#FD822F"/>
		</linearGradient>
		<rect x="14.1" y="10.5" class="st6" width="8.7" height="9.5"/>
	</g>
	<path class="st4" d="M16,19h4.9c0.5,0,1-0.4,1-1v-5.5c0-0.5-0.4-1-1-1H16c-0.5,0-1,0.4-1,1V18C15.1,18.5,15.5,19,16,19"/>
	<path class="st7" d="M19,18.2h-2.4v-6h2.1c0.4,0,0.7,0,1,0.1c0.3,0.1,0.5,0.2,0.6,0.4c0.2,0.3,0.4,0.7,0.4,1c0,0.5-0.1,0.8-0.4,1
		C20.1,15,20.1,15,20,15c0,0-0.1,0.1-0.2,0.1c0.3,0.1,0.6,0.2,0.8,0.5c0.2,0.3,0.3,0.6,0.3,0.9c0,0.4-0.1,0.8-0.4,1.1
		C20.2,18.1,19.7,18.2,19,18.2 M17.8,14.7h0.6c0.3,0,0.6,0,0.8-0.1c0.2-0.1,0.2-0.3,0.2-0.5c0-0.3-0.1-0.4-0.2-0.5
		c-0.2-0.1-0.4-0.1-0.8-0.1h-0.6V14.7z M17.8,17.1h0.8c0.4,0,0.6,0,0.8-0.1c0.2-0.1,0.3-0.3,0.3-0.6c0-0.3-0.1-0.5-0.3-0.5
		c-0.2-0.1-0.5-0.1-0.9-0.1h-0.7V17.1z"/>
	<g>
		<defs>
			<path id="SVGID_7_" d="M20.3,29.5h6.3c0.7,0,1.2-0.5,1.2-1.2v-7.1c0-0.7-0.5-1.2-1.2-1.2h-6.3c-0.7,0-1.2,0.5-1.2,1.2v7.1
				C19.1,29,19.6,29.5,20.3,29.5"/>
		</defs>
		<clipPath id="SVGID_8_">
			<use xlink:href="#SVGID_7_"  style="overflow:visible;"/>
		</clipPath>
		<linearGradient id="SVGID_9_" gradientUnits="userSpaceOnUse" x1="23.4076" y1="29.3909" x2="23.5019" y2="19.986">
			<stop  offset="0" style="stop-color:#006ECD"/>
			<stop  offset="1" style="stop-color:#1E8FE8"/>
		</linearGradient>
		<rect x="19.1" y="20" class="st8" width="8.7" height="9.5"/>
	</g>
	<path class="st9" d="M21,28.5h4.9c0.5,0,1-0.4,1-1V22c0-0.5-0.4-1-1-1H21c-0.5,0-1,0.4-1,1v5.5C20,28.1,20.5,28.5,21,28.5"/>
	<path class="st10" d="M23.7,26.6c0.6,0,1.1-0.3,1.5-0.8l0.8,0.9c-0.6,0.8-1.4,1.1-2.2,1.1c-0.8,0-1.5-0.3-2.1-0.9
		c-0.5-0.6-0.8-1.3-0.8-2.2c0-0.9,0.3-1.6,0.8-2.2c0.6-0.6,1.2-0.9,2-0.9c0.9,0,1.7,0.4,2.3,1.1l-0.8,0.9c-0.4-0.5-0.9-0.8-1.4-0.8
		c-0.5,0-0.9,0.2-1.2,0.5c-0.3,0.3-0.5,0.8-0.5,1.3c0,0.6,0.2,1,0.5,1.3C22.9,26.4,23.3,26.6,23.7,26.6"/>
</g>
</svg>
