<?xml version="1.0" encoding="utf-8"?>
<!-- Generator: Adobe Illustrator 25.3.1, SVG Export Plug-In . SVG Version: 6.00 Build 0)  -->
<svg version="1.1" id="Layer_1" xmlns="http://www.w3.org/2000/svg" xmlns:xlink="http://www.w3.org/1999/xlink" x="0px" y="0px"
	 width="40px" height="40px" viewBox="0 0 40 40" style="enable-background:new 0 0 40 40;" xml:space="preserve">
<style type="text/css">
	.st0{clip-path:url(#SVGID_2_);fill:url(#SVGID_3_);}
	.st1{clip-path:url(#SVGID_5_);fill:url(#SVGID_6_);}
	.st2{clip-path:url(#SVGID_8_);fill:url(#SVGID_9_);}
	.st3{clip-path:url(#SVGID_11_);fill:url(#SVGID_12_);}
	.st4{clip-path:url(#SVGID_14_);fill:url(#SVGID_15_);}
</style>
<g>
	<g>
		<g>
			<defs>
				<polygon id="SVGID_1_" points="16.2,14 18.5,14.6 18.5,27.6 16.2,27.1 				"/>
			</defs>
			<clipPath id="SVGID_2_">
				<use xlink:href="#SVGID_1_"  style="overflow:visible;"/>
			</clipPath>
			
				<linearGradient id="SVGID_3_" gradientUnits="userSpaceOnUse" x1="17.4229" y1="26.7694" x2="17.4314" y2="13.7542" gradientTransform="matrix(1 0 0 -1 0 42)">
				<stop  offset="0" style="stop-color:#CD0033"/>
				<stop  offset="1" style="stop-color:#F15276"/>
			</linearGradient>
			<rect x="16.2" y="14" class="st0" width="2.4" height="13.6"/>
		</g>
	</g>
	<g>
		<g>
			<defs>
				<polygon id="SVGID_4_" points="27.4,11.3 29.7,11.8 29.7,25 27.4,24.4 				"/>
			</defs>
			<clipPath id="SVGID_5_">
				<use xlink:href="#SVGID_4_"  style="overflow:visible;"/>
			</clipPath>
			
				<linearGradient id="SVGID_6_" gradientUnits="userSpaceOnUse" x1="28.5439" y1="29.4788" x2="28.5525" y2="16.4636" gradientTransform="matrix(1 0 0 -1 0 42)">
				<stop  offset="0" style="stop-color:#CD0033"/>
				<stop  offset="1" style="stop-color:#F15276"/>
			</linearGradient>
			<rect x="27.4" y="11.3" class="st1" width="2.4" height="13.6"/>
		</g>
	</g>
	<g>
		<g>
			<defs>
				<path id="SVGID_7_" d="M16.2,16.1l13.5-1.9v-3.8c0-0.5-0.2-0.9-0.6-1.3c-0.4-0.4-0.8-0.6-1.3-0.5l-10.8,1.6
					c-0.6,0.1-0.9,0.5-0.9,1.1V16.1z"/>
			</defs>
			<clipPath id="SVGID_8_">
				<use xlink:href="#SVGID_7_"  style="overflow:visible;"/>
			</clipPath>
			
				<linearGradient id="SVGID_9_" gradientUnits="userSpaceOnUse" x1="22.987" y1="26.4954" x2="22.987" y2="32.6256" gradientTransform="matrix(1 0 0 -1 0 42)">
				<stop  offset="0" style="stop-color:#F15276"/>
				<stop  offset="1" style="stop-color:#FF8198"/>
			</linearGradient>
			<rect x="16.2" y="8.7" class="st2" width="13.5" height="7.4"/>
		</g>
	</g>
	<g>
		<g>
			<defs>
				<path id="SVGID_10_" d="M25.6,20.7c2.3,0,4.1,1.8,4.1,4.1S27.9,29,25.6,29s-4.1-1.8-4.1-4.1C21.5,22.7,23.3,20.7,25.6,20.7"/>
			</defs>
			<clipPath id="SVGID_11_">
				<use xlink:href="#SVGID_10_"  style="overflow:visible;"/>
			</clipPath>
			
				<linearGradient id="SVGID_12_" gradientUnits="userSpaceOnUse" x1="26.2794" y1="14.9003" x2="24.8819" y2="19.5387" gradientTransform="matrix(1 0 0 -1 0 42)">
				<stop  offset="0" style="stop-color:#F15276"/>
				<stop  offset="1" style="stop-color:#FF8198"/>
			</linearGradient>
			<rect x="21.5" y="20.7" class="st3" width="8.3" height="8.3"/>
		</g>
	</g>
	<g>
		<g>
			<defs>
				<path id="SVGID_13_" d="M14.4,22.9c2.3,0,4.1,1.8,4.1,4.1s-1.8,4.1-4.1,4.1s-4.1-1.8-4.1-4.1S12.1,22.9,14.4,22.9"/>
			</defs>
			<clipPath id="SVGID_14_">
				<use xlink:href="#SVGID_13_"  style="overflow:visible;"/>
			</clipPath>
			
				<linearGradient id="SVGID_15_" gradientUnits="userSpaceOnUse" x1="15.0629" y1="12.7065" x2="13.6653" y2="17.345" gradientTransform="matrix(1 0 0 -1 0 42)">
				<stop  offset="0" style="stop-color:#F15276"/>
				<stop  offset="1" style="stop-color:#FF8198"/>
			</linearGradient>
			<rect x="10.3" y="22.9" class="st4" width="8.3" height="8.3"/>
		</g>
	</g>
</g>
</svg>
