<?xml version="1.0" encoding="utf-8"?>
<!-- Generator: Adobe Illustrator 25.3.1, SVG Export Plug-In . SVG Version: 6.00 Build 0)  -->
<svg version="1.1" id="Layer_1" xmlns="http://www.w3.org/2000/svg" xmlns:xlink="http://www.w3.org/1999/xlink" x="0px" y="0px"
	 width="40px" height="40px" viewBox="0 0 40 40" style="enable-background:new 0 0 40 40;" xml:space="preserve">
<style type="text/css">
	.st0{clip-path:url(#SVGID_2_);fill:url(#SVGID_3_);}
	.st1{clip-path:url(#SVGID_5_);fill:url(#SVGID_6_);}
	.st2{fill:#FFC201;}
	.st3{clip-path:url(#SVGID_8_);fill:url(#SVGID_9_);}
	.st4{clip-path:url(#SVGID_11_);fill:url(#SVGID_12_);}
</style>
<g>
	<g>
		<g>
			<defs>
				<path id="SVGID_1_" d="M14.9,14.6l1.8-2.4c0.5-0.6,1.4-0.8,1.9-0.3l6.9,4.3l1.5-2.2c0.9-1.3,2.7,0,1.8,1.3l-1.9,3.2
					c-0.5,0.7-1.4,0.9-2.1,0.5l-1.7-1l-1.9,3.4l2.3,1.5c0.8,0.5,1,1.5,0.6,2.3l-1.1,2.2c-0.8,1.5-3.3,0.1-2.4-1.4l0.8-1.5l-2.9-1.8
					l-2.5,4.7c-0.8,1.5-3.3,0.2-2.4-1.4l5.8-10.4l-1.6-1l-1,1.6C16,17.3,13.9,16,14.9,14.6 M24,8.3c1.5,0,2.6,1.1,2.6,2.6
					s-1.1,2.6-2.6,2.6s-2.6-1.1-2.6-2.6S22.5,8.3,24,8.3z"/>
			</defs>
			<clipPath id="SVGID_2_">
				<use xlink:href="#SVGID_1_"  style="overflow:visible;"/>
			</clipPath>
			
				<linearGradient id="SVGID_3_" gradientUnits="userSpaceOnUse" x1="21.274" y1="14.4745" x2="21.498" y2="33.6862" gradientTransform="matrix(1 0 0 -1 0 42)">
				<stop  offset="0" style="stop-color:#006ECD"/>
				<stop  offset="1" style="stop-color:#1E8FE8"/>
			</linearGradient>
			<rect x="12.9" y="8.3" class="st0" width="16.9" height="20.2"/>
		</g>
	</g>
	<g>
		<g>
			<defs>
				<path id="SVGID_4_" d="M11.9,28.7H28c0.8,0,1.5,0.7,1.5,1.5s-0.7,1.5-1.5,1.5H11.9c-0.8,0-1.5-0.7-1.5-1.5
					C10.4,29.4,11.1,28.7,11.9,28.7"/>
			</defs>
			<clipPath id="SVGID_5_">
				<use xlink:href="#SVGID_4_"  style="overflow:visible;"/>
			</clipPath>
			
				<linearGradient id="SVGID_6_" gradientUnits="userSpaceOnUse" x1="19.95" y1="10.6464" x2="19.95" y2="13.333" gradientTransform="matrix(1 0 0 -1 0 42)">
				<stop  offset="0" style="stop-color:#FB8A25"/>
				<stop  offset="1" style="stop-color:#F1B304"/>
			</linearGradient>
			<rect x="10.4" y="28.7" class="st1" width="19.1" height="3"/>
		</g>
	</g>
	<path class="st2" d="M11.5,29h16.6c0.3,0,0.6,0.2,0.6,0.6l0,0c0,0.3-0.2,0.6-0.6,0.6H11.5c-0.3,0-0.6-0.2-0.6-0.6l0,0
		C11,29.4,11.2,29,11.5,29"/>
	<g>
		<g>
			<defs>
				<path id="SVGID_7_" d="M24.9,18.9c0.7,0.5,1.6,0.2,2.1-0.5l2.1-3.1c0.8-1.3-1-2.5-1.8-1.3l-1.5,2.2l-2.2-1.4
					c1.1,0.7,0.2,2.2-0.2,3L24.9,18.9z"/>
			</defs>
			<clipPath id="SVGID_8_">
				<use xlink:href="#SVGID_7_"  style="overflow:visible;"/>
			</clipPath>
			
				<linearGradient id="SVGID_9_" gradientUnits="userSpaceOnUse" x1="22.9631" y1="26.5852" x2="30.1449" y2="25.2762" gradientTransform="matrix(1 0 0 -1 0 42)">
				<stop  offset="0" style="stop-color:#004C8F"/>
				<stop  offset="1" style="stop-color:#1E8FE8"/>
			</linearGradient>
			<rect x="23.2" y="12.8" class="st3" width="6.5" height="6.5"/>
		</g>
	</g>
	<g>
		<g>
			<defs>
				<path id="SVGID_10_" d="M23.6,22.7l-2.3-1.5c0,0-1.3,2.2-2.6,1.3l2.9,1.8l-0.8,1.5c-0.9,1.5,1.6,2.9,2.4,1.4l1.1-2.2
					C24.6,24.2,24.4,23.2,23.6,22.7"/>
			</defs>
			<clipPath id="SVGID_11_">
				<use xlink:href="#SVGID_10_"  style="overflow:visible;"/>
			</clipPath>
			
				<linearGradient id="SVGID_12_" gradientUnits="userSpaceOnUse" x1="18.2475" y1="17.5346" x2="25.2829" y2="16.4668" gradientTransform="matrix(1 0 0 -1 0 42)">
				<stop  offset="0" style="stop-color:#004C8F"/>
				<stop  offset="1" style="stop-color:#1E8FE8"/>
			</linearGradient>
			<rect x="18.6" y="21.3" class="st4" width="5.9" height="7.4"/>
		</g>
	</g>
</g>
</svg>
