<?xml version="1.0" encoding="utf-8"?>
<!-- Generator: Adobe Illustrator 25.3.1, SVG Export Plug-In . SVG Version: 6.00 Build 0)  -->
<svg version="1.1" id="Layer_1" xmlns="http://www.w3.org/2000/svg" xmlns:xlink="http://www.w3.org/1999/xlink" x="0px" y="0px"
	 width="40px" height="40px" viewBox="0 0 40 40" style="enable-background:new 0 0 40 40;" xml:space="preserve">
<style type="text/css">
	.st0{fill-rule:evenodd;clip-rule:evenodd;fill:#1E8FE8;}
	.st1{clip-path:url(#SVGID_2_);fill:url(#SVGID_3_);}
	.st2{clip-path:url(#SVGID_5_);fill:url(#SVGID_6_);}
	.st3{clip-path:url(#SVGID_8_);fill:url(#SVGID_9_);}
	.st4{clip-path:url(#SVGID_11_);fill:url(#SVGID_12_);}
	.st5{clip-path:url(#SVGID_14_);fill:url(#SVGID_15_);}
	.st6{clip-path:url(#SVGID_17_);fill:url(#SVGID_18_);}
	.st7{clip-path:url(#SVGID_20_);fill:url(#SVGID_21_);}
	.st8{clip-path:url(#SVGID_23_);fill:url(#SVGID_24_);}
	.st9{clip-path:url(#SVGID_26_);fill:url(#SVGID_27_);}
	.st10{clip-path:url(#SVGID_29_);fill:url(#SVGID_30_);}
	.st11{fill-rule:evenodd;clip-rule:evenodd;fill:#5BABEE;}
</style>
<g>
	<path class="st0" d="M27.5,28.1h-5.8c-0.6,0-1.1-0.5-1.1-1.1v0c0-0.6,0.5-1.1,1.1-1.1h5v-3.4H17c-0.6,0-1.1-0.5-1.1-1.1v0
		c0-0.6,0.5-1.1,1.1-1.1h9.6v-8.7h-5c-0.6,0-1.1-0.5-1.1-1.1v0c0-0.6,0.5-1.1,1.1-1.1h6h0h0c0.6,0,1.1,0.5,1.1,1.1v0v0v10.8v0v0v0
		V27v0v0v0v0c0,0.6-0.5,1.1-1.1,1.1h0C27.6,28.2,27.5,28.1,27.5,28.1 M11.5,9.7L11.5,9.7h0.4h4.9h0h0h0h0l0,0h0l0,0h0l0,0h0l0,0h0
		l0,0h0l0,0h0l0,0h0l0,0h0l0,0h0l0,0h0l0,0h0l0,0h0l0,0h0l0,0h0l0,0h0l0,0h0l0,0h0l0,0h0l0,0h0l0,0h0l0,0h0l0,0h0l0,0h0l0,0h0l0,0h0
		l0,0h0l0,0h0l0,0h0l0,0h0l0,0h0l0,0h0l0,0h0l0,0h0l0,0h0l0,0h0l0,0h0l0,0h0l0,0h0l0,0h0l0,0h0l0,0h0l0,0h0l0,0h0l0,0h0l0,0h0l0,0h0
		l0,0h0l0,0h0l0,0h0l0,0h0l0,0h0l0,0h0l0,0h0l0,0h0l0,0h0l0,0h0l0,0h0l0,0h0l0,0h0l0,0h0l0,0h0l0,0l0,0v4.3h4.3
		c0.6,0,1.1,0.5,1.1,1.1v0c0,0.6-0.5,1.1-1.1,1.1h-5.3h0h0c-0.6,0-1.1-0.5-1.1-1.1v0v0v-4.3h-3.2V26h5c0.6,0,1.1,0.5,1.1,1.1v0
		c0,0.6-0.5,1.1-1.1,1.1h-5.8c-0.1,0-0.1,0-0.2,0h0c-0.6,0-1.1-0.5-1.1-1.1V10.8C10.4,10.2,10.9,9.7,11.5,9.7z"/>
	<g>
		<defs>
			<path id="SVGID_1_" d="M22.2,17.2h-5.3h0c-0.6,0-1.1-0.5-1.1-1.1v0v-1.4l0,3.5c0,0.6,0.5,1.1,1.1,1.1h5.4c0.6,0,1.1-0.5,1.1-1.1
				l0-2.1C23.2,16.7,22.7,17.2,22.2,17.2"/>
		</defs>
		<clipPath id="SVGID_2_">
			<use xlink:href="#SVGID_1_"  style="overflow:visible;"/>
		</clipPath>
		<linearGradient id="SVGID_3_" gradientUnits="userSpaceOnUse" x1="19.4742" y1="19.3215" x2="19.4742" y2="16.8699">
			<stop  offset="0" style="stop-color:#004C8F"/>
			<stop  offset="1" style="stop-color:#006ECD"/>
		</linearGradient>
		<rect x="15.7" y="14.7" class="st1" width="7.5" height="4.6"/>
	</g>
	<g>
		<defs>
			<rect id="SVGID_4_" x="12.5" y="11.9" width="3.2" height="2"/>
		</defs>
		<clipPath id="SVGID_5_">
			<use xlink:href="#SVGID_4_"  style="overflow:visible;"/>
		</clipPath>
		<linearGradient id="SVGID_6_" gradientUnits="userSpaceOnUse" x1="14.1306" y1="13.8429" x2="14.1306" y2="12.0929">
			<stop  offset="0" style="stop-color:#004C8F"/>
			<stop  offset="1" style="stop-color:#006ECD"/>
		</linearGradient>
		<rect x="12.5" y="11.9" class="st2" width="3.2" height="2"/>
	</g>
	<g>
		<defs>
			<path id="SVGID_7_" d="M12.5,14.7V26V14.7z"/>
		</defs>
		<clipPath id="SVGID_8_">
			<use xlink:href="#SVGID_7_"  style="overflow:visible;"/>
		</clipPath>
		<linearGradient id="SVGID_9_" gradientUnits="userSpaceOnUse" x1="12.6347" y1="20.3414" x2="12.8948" y2="20.3178">
			<stop  offset="0" style="stop-color:#004C8F"/>
			<stop  offset="1" style="stop-color:#006ECD"/>
		</linearGradient>
		<polygon class="st3" points="12.5,26 12.5,26 12.5,14.7 		"/>
	</g>
	<g>
		<defs>
			<path id="SVGID_10_" d="M18.5,27.1L18.5,27.1C18.5,27.1,18.5,27.1,18.5,27.1"/>
		</defs>
		<clipPath id="SVGID_11_">
			<use xlink:href="#SVGID_10_"  style="overflow:visible;"/>
		</clipPath>
		<linearGradient id="SVGID_12_" gradientUnits="userSpaceOnUse" x1="18.5458" y1="27.0782" x2="18.5458" y2="27.0703">
			<stop  offset="0" style="stop-color:#004C8F"/>
			<stop  offset="1" style="stop-color:#006ECD"/>
		</linearGradient>
		<polygon class="st4" points="18.5,27.1 18.5,27.1 18.5,27.1 		"/>
	</g>
	<g>
		<defs>
			<path id="SVGID_13_" d="M18.5,27.1l0,2c0,0.6-0.5,1.1-1.1,1.1h-5.8c-0.1,0-0.1,0-0.2,0c-0.6,0-1.1-0.5-1.1-1.1V13.5l0-2.8v16.3
				c0,0.6,0.5,1.1,1.1,1.1c0.1,0,0.1,0,0.2,0h5.8C18.1,28.1,18.5,27.7,18.5,27.1"/>
		</defs>
		<clipPath id="SVGID_14_">
			<use xlink:href="#SVGID_13_"  style="overflow:visible;"/>
		</clipPath>
		<linearGradient id="SVGID_15_" gradientUnits="userSpaceOnUse" x1="14.4526" y1="30.2313" x2="14.4526" y2="27.4881">
			<stop  offset="0" style="stop-color:#004C8F"/>
			<stop  offset="1" style="stop-color:#006ECD"/>
		</linearGradient>
		<rect x="10.4" y="10.8" class="st5" width="8.2" height="19.4"/>
	</g>
	<g>
		<defs>
			<path id="SVGID_16_" d="M10.4,10.8L10.4,10.8C10.4,10.8,10.4,10.8,10.4,10.8"/>
		</defs>
		<clipPath id="SVGID_17_">
			<use xlink:href="#SVGID_16_"  style="overflow:visible;"/>
		</clipPath>
		<linearGradient id="SVGID_18_" gradientUnits="userSpaceOnUse" x1="10.3887" y1="10.7607" x2="10.3887" y2="10.7528">
			<stop  offset="0" style="stop-color:#004C8F"/>
			<stop  offset="1" style="stop-color:#006ECD"/>
		</linearGradient>
		<polygon class="st6" points="10.4,10.8 10.4,10.8 10.4,10.8 		"/>
	</g>
	<g>
		<defs>
			<path id="SVGID_19_" d="M10.4,10.8c0-0.6,0.5-1.1,1.1-1.1C10.9,9.7,10.4,10.2,10.4,10.8"/>
		</defs>
		<clipPath id="SVGID_20_">
			<use xlink:href="#SVGID_19_"  style="overflow:visible;"/>
		</clipPath>
		<linearGradient id="SVGID_21_" gradientUnits="userSpaceOnUse" x1="10.9197" y1="10.1064" x2="10.9197" y2="9.8305">
			<stop  offset="0" style="stop-color:#004C8F"/>
			<stop  offset="1" style="stop-color:#006ECD"/>
		</linearGradient>
		<rect x="10.4" y="9.7" class="st7" width="1.1" height="1.1"/>
	</g>
	<g>
		<defs>
			<path id="SVGID_22_" d="M26.6,22.7H17c-0.6,0-1.1-0.5-1.1-1.1l0,2.2v0c0,0.6,0.5,1.1,1.1,1.1h9.6V22.7z"/>
		</defs>
		<clipPath id="SVGID_23_">
			<use xlink:href="#SVGID_22_"  style="overflow:visible;"/>
		</clipPath>
		<linearGradient id="SVGID_24_" gradientUnits="userSpaceOnUse" x1="21.2721" y1="24.5951" x2="21.2721" y2="22.3721">
			<stop  offset="0" style="stop-color:#004C8F"/>
			<stop  offset="1" style="stop-color:#006ECD"/>
		</linearGradient>
		<rect x="15.9" y="21.6" class="st8" width="10.7" height="3.2"/>
	</g>
	<g>
		<defs>
			<path id="SVGID_25_" d="M27.5,28.1h-5.8c-0.6,0-1.1-0.5-1.1-1.1l0,2v0c0,0.6,0.5,1.1,1.1,1.1c2,0,4,0,6,0c0.6,0,1.1-0.5,1.1-1.1
				l0-2c0,0.6-0.5,1.1-1.1,1.1C27.6,28.2,27.5,28.1,27.5,28.1"/>
		</defs>
		<clipPath id="SVGID_26_">
			<use xlink:href="#SVGID_25_"  style="overflow:visible;"/>
		</clipPath>
		<linearGradient id="SVGID_27_" gradientUnits="userSpaceOnUse" x1="24.6479" y1="30.184" x2="24.6479" y2="27.9217">
			<stop  offset="0" style="stop-color:#004C8F"/>
			<stop  offset="1" style="stop-color:#006ECD"/>
		</linearGradient>
		<rect x="20.6" y="27.1" class="st9" width="8.2" height="3.1"/>
	</g>
	<g>
		<defs>
			<path id="SVGID_28_" d="M21.6,13.9l5,0l0-2h-5c-0.6,0-1.1-0.5-1.1-1.1l0,2v0C20.6,13.4,21,13.9,21.6,13.9"/>
		</defs>
		<clipPath id="SVGID_29_">
			<use xlink:href="#SVGID_28_"  style="overflow:visible;"/>
		</clipPath>
		<linearGradient id="SVGID_30_" gradientUnits="userSpaceOnUse" x1="23.5856" y1="11.951" x2="23.5856" y2="11.1469">
			<stop  offset="0" style="stop-color:#004C8F"/>
			<stop  offset="1" style="stop-color:#006ECD"/>
		</linearGradient>
		<rect x="20.6" y="10.8" class="st10" width="6.1" height="3.1"/>
	</g>
	<path class="st11" d="M26.6,11.8h-5c-0.6,0-1.1-0.5-1.1-1.1v0c0-0.1,0-0.1,0-0.2c0.1,0.5,0.5,0.9,1,0.9h5V11.8z M26.6,22.7H17
		c-0.6,0-1.1-0.5-1.1-1.1v0c0-0.1,0-0.1,0-0.2c0.1,0.5,0.5,0.9,1,0.9h9.6V22.7z M27.5,28.1h-5.8c-0.6,0-1.1-0.5-1.1-1.1v0
		c0-0.1,0-0.1,0-0.2c0.1,0.5,0.5,0.9,1,0.9h5.8c0.1,0,0.1,0,0.2,0h0c0.6,0,1.1-0.5,1.1-1.1V27v0v0v0v0c0,0.6-0.5,1.1-1.1,1.1h0
		C27.6,28.2,27.5,28.1,27.5,28.1z M18.5,26.9c0,0.1,0,0.1,0,0.2v0c0,0.6-0.5,1.1-1.1,1.1h-5.8c-0.1,0-0.1,0-0.2,0h0
		c-0.6,0-1.1-0.5-1.1-1.1v-0.4c0,0.6,0.5,1.1,1.1,1.1h0c0.1,0,0.1,0,0.2,0h5.8C18,27.8,18.4,27.4,18.5,26.9z M15.7,11.9h-3.2v-0.4
		h3.2V11.9z M23.2,16c0,0.1,0,0.1,0,0.2v0c0,0.6-0.5,1.1-1.1,1.1h-5.3h0h0c-0.6,0-1.1-0.5-1.1-1.1v0v0v-0.3c0,0.6,0.5,1.1,1.1,1.1h0
		h0h5.3C22.7,16.9,23.1,16.5,23.2,16z"/>
</g>
</svg>
