<?xml version="1.0" encoding="utf-8"?>
<!-- Generator: Adobe Illustrator 25.3.1, SVG Export Plug-In . SVG Version: 6.00 Build 0)  -->
<svg version="1.1" id="Layer_1" xmlns="http://www.w3.org/2000/svg" xmlns:xlink="http://www.w3.org/1999/xlink" x="0px" y="0px"
	 width="40px" height="40px" viewBox="0 0 40 40" style="enable-background:new 0 0 40 40;" xml:space="preserve">
<style type="text/css">
	.st0{fill-rule:evenodd;clip-rule:evenodd;fill:#8F0021;}
	.st1{clip-path:url(#SVGID_2_);fill:url(#SVGID_3_);}
	.st2{clip-path:url(#SVGID_5_);fill:url(#SVGID_6_);}
</style>
<g>
	<path class="st0" d="M14.4,20.3c0,0.6-0.4,1-1,1h-0.8c0.4,3.3,3.1,5.9,6.4,6.4v-0.8c0-0.6,0.4-1,1-1s1,0.4,1,1v0.8
		c3.3-0.4,5.9-3,6.4-6.4h-0.8c-0.6,0-1-0.4-1-1c0-0.6,0.4-1,1-1h0.8c-0.4-3.3-3-6-6.4-6.5v0.8c0,0.6-0.4,1-1,1s-1-0.4-1-1v-0.8
		c-3.3,0.4-6,3.1-6.4,6.5h0.8C14,19.3,14.4,19.8,14.4,20.3 M21,10.7c4.5,0.4,8,4,8.5,8.6h1.8c0.6,0,1,0.4,1,1s-0.4,1-1,1h-1.8
		c-0.4,4.5-4,8-8.5,8.5v1.8c0,0.6-0.4,1-1,1s-1-0.4-1-1v-1.8c-4.5-0.4-8-4-8.5-8.5H8.7c-0.6,0-1-0.4-1-1s0.4-1,1-1h1.8
		c0.4-4.5,4-8.1,8.5-8.6V9c0-0.6,0.4-1,1-1s1,0.4,1,1V10.7z"/>
	<path class="st0" d="M20,17.3c1.7,0,3.1,1.3,3.1,3.1c0,1.7-1.3,3.1-3.1,3.1c-1.7,0-3.1-1.3-3.1-3.1C16.9,18.7,18.3,17.3,20,17.3"/>
	<g>
		<g>
			<defs>
				<path id="SVGID_1_" d="M14.4,19.7c0,0.6-0.4,1-1,1h-0.8c0.4,3.3,3.1,5.9,6.4,6.4v-0.8c0-0.6,0.4-1,1-1s1,0.4,1,1V27
					c3.3-0.4,5.9-3,6.4-6.4h-0.8c-0.6,0-1-0.4-1-1s0.4-1,1-1h0.8c-0.4-3.3-3-6-6.4-6.5V13c0,0.6-0.4,1-1,1s-1-0.4-1-1v-0.8
					c-3.3,0.4-6,3.1-6.4,6.5h0.8C14,18.8,14.4,19.2,14.4,19.7 M21,10.2c4.5,0.4,8,4,8.5,8.6h1.8c0.6,0,1,0.4,1,1s-0.4,1-1,1h-1.8
					c-0.4,4.5-4,8-8.5,8.5V31c0,0.6-0.4,1-1,1s-1-0.4-1-1v-1.8c-4.5-0.4-8-4-8.5-8.5H8.7c-0.6,0-1-0.4-1-1s0.4-1,1-1h1.8
					c0.4-4.5,4-8.1,8.5-8.6V8.4c0-0.6,0.4-1,1-1s1,0.4,1,1V10.2z"/>
			</defs>
			<clipPath id="SVGID_2_">
				<use xlink:href="#SVGID_1_"  style="overflow:visible;"/>
			</clipPath>
			
				<linearGradient id="SVGID_3_" gradientUnits="userSpaceOnUse" x1="19.9405" y1="10.6208" x2="19.9486" y2="35.6917" gradientTransform="matrix(1 0 0 -1 0 42)">
				<stop  offset="0" style="stop-color:#CD0033"/>
				<stop  offset="1" style="stop-color:#FD822F"/>
			</linearGradient>
			<rect x="7.7" y="7.5" class="st1" width="24.4" height="24.4"/>
		</g>
	</g>
	<g>
		<g>
			<defs>
				<path id="SVGID_4_" d="M20,16.5c1.7,0,3.1,1.3,3.1,3.1c0,1.7-1.3,3.1-3.1,3.1c-1.7,0-3.1-1.3-3.1-3.1C16.9,18,18.3,16.5,20,16.5
					"/>
			</defs>
			<clipPath id="SVGID_5_">
				<use xlink:href="#SVGID_4_"  style="overflow:visible;"/>
			</clipPath>
			
				<linearGradient id="SVGID_6_" gradientUnits="userSpaceOnUse" x1="19.9962" y1="10.6207" x2="20.0043" y2="35.6917" gradientTransform="matrix(1 0 0 -1 0 42)">
				<stop  offset="0" style="stop-color:#CD0033"/>
				<stop  offset="1" style="stop-color:#FF3B30"/>
			</linearGradient>
			<rect x="16.9" y="16.5" class="st2" width="6.2" height="6.2"/>
		</g>
	</g>
</g>
</svg>
