<?xml version="1.0" encoding="utf-8"?>
<!-- Generator: Adobe Illustrator 25.3.1, SVG Export Plug-In . SVG Version: 6.00 Build 0)  -->
<svg version="1.1" id="Layer_1" xmlns="http://www.w3.org/2000/svg" xmlns:xlink="http://www.w3.org/1999/xlink" x="0px" y="0px"
	 width="40px" height="40px" viewBox="0 0 40 40" style="enable-background:new 0 0 40 40;" xml:space="preserve">
<style type="text/css">
	.st0{fill-rule:evenodd;clip-rule:evenodd;fill:#8B9CD4;}
	.st1{clip-path:url(#SVGID_2_);fill:url(#SVGID_3_);}
	.st2{clip-path:url(#SVGID_5_);fill:url(#SVGID_6_);}
	.st3{opacity:0.5;clip-path:url(#SVGID_8_);fill-rule:evenodd;clip-rule:evenodd;fill:#7587CC;}
	.st4{clip-path:url(#SVGID_10_);fill:url(#SVGID_11_);}
	.st5{opacity:0.5;clip-path:url(#SVGID_13_);fill-rule:evenodd;clip-rule:evenodd;fill:#7587CC;}
	.st6{clip-path:url(#SVGID_15_);fill:url(#SVGID_16_);}
	.st7{clip-path:url(#SVGID_18_);fill:url(#SVGID_19_);}
	.st8{fill-rule:evenodd;clip-rule:evenodd;fill:#7587CC;}
	.st9{fill-rule:evenodd;clip-rule:evenodd;}
	.st10{clip-path:url(#SVGID_21_);fill:url(#SVGID_22_);}
	.st11{clip-path:url(#SVGID_24_);fill:url(#SVGID_25_);}
</style>
<g>
	<path class="st0" d="M14.4,9.6h0.9c0.4,0,0.7,0.4,0.7,0.9v1.7h2.6v-1.7c0-0.5,0.3-0.9,0.7-0.9h2.2c0.4,0,0.7,0.4,0.7,0.9v1.7h2.6
		v-1.7c0-0.5,0.3-0.9,0.7-0.9h0.7c0.4,0,0.7,0.4,0.7,0.9v6H13.6v-6C13.6,10,14,9.6,14.4,9.6"/>
	<g>
		<defs>
			<path id="SVGID_1_" d="M12.5,30.5h15.7c0.3,0,0.5,0.2,0.5,0.5v2c0,0.3-0.2,0.5-0.5,0.5H12.5c-0.3,0-0.5-0.2-0.5-0.5v-2
				C12.1,30.7,12.3,30.5,12.5,30.5"/>
		</defs>
		<clipPath id="SVGID_2_">
			<use xlink:href="#SVGID_1_"  style="overflow:visible;"/>
		</clipPath>
		<linearGradient id="SVGID_3_" gradientUnits="userSpaceOnUse" x1="28.4844" y1="32.0056" x2="12.0917" y2="32.0056">
			<stop  offset="0" style="stop-color:#7587CC"/>
			<stop  offset="0.66" style="stop-color:#8B9CD4"/>
			<stop  offset="1" style="stop-color:#7587CC"/>
		</linearGradient>
		<rect x="12.1" y="30.5" class="st1" width="16.6" height="2.9"/>
	</g>
	<g>
		<defs>
			<polygon id="SVGID_4_" points="13.8,18 27.1,18 27.5,30.5 13.3,30.5 			"/>
		</defs>
		<clipPath id="SVGID_5_">
			<use xlink:href="#SVGID_4_"  style="overflow:visible;"/>
		</clipPath>
		<linearGradient id="SVGID_6_" gradientUnits="userSpaceOnUse" x1="11.6845" y1="24.2868" x2="29.7155" y2="24.2868">
			<stop  offset="0" style="stop-color:#8B9CD4"/>
			<stop  offset="0.3" style="stop-color:#CCD5F4"/>
			<stop  offset="0.53" style="stop-color:#C8D2F2"/>
			<stop  offset="1" style="stop-color:#8B9CD4"/>
		</linearGradient>
		<rect x="13.3" y="18" class="st2" width="14.3" height="12.5"/>
	</g>
	<g>
		<defs>
			<polygon id="SVGID_7_" points="13.8,18 27.1,18 27.5,30.5 13.3,30.5 			"/>
		</defs>
		<clipPath id="SVGID_8_">
			<use xlink:href="#SVGID_7_"  style="overflow:visible;"/>
		</clipPath>
		<path class="st3" d="M14.8,19h1.5c0.2,0,0.3,0.2,0.3,0.3v0.5c0,0.2-0.2,0.3-0.3,0.3h-1.5c-0.2,0-0.3-0.2-0.3-0.3v-0.5
			C14.5,19.2,14.6,19,14.8,19"/>
		<path class="st3" d="M15.9,20.4h1.5c0.2,0,0.3,0.2,0.3,0.3v0.5c0,0.2-0.2,0.3-0.3,0.3h-1.5c-0.2,0-0.3-0.2-0.3-0.3v-0.5
			C15.5,20.6,15.7,20.4,15.9,20.4"/>
		<path class="st3" d="M24.1,27.4h1.5c0.2,0,0.3,0.2,0.3,0.3v0.5c0,0.2-0.2,0.3-0.3,0.3h-1.5c-0.2,0-0.3-0.2-0.3-0.3v-0.5
			C23.7,27.6,23.9,27.4,24.1,27.4"/>
		<path class="st3" d="M25.1,28.9h1.5c0.2,0,0.3,0.2,0.3,0.3v0.5c0,0.2-0.2,0.3-0.3,0.3h-1.5c-0.2,0-0.3-0.2-0.3-0.3v-0.5
			C24.8,29,24.9,28.9,25.1,28.9"/>
		<path class="st3" d="M22.7,28.9h1.5c0.2,0,0.3,0.2,0.3,0.3v0.5c0,0.2-0.2,0.3-0.3,0.3h-1.5c-0.2,0-0.3-0.2-0.3-0.3v-0.5
			C22.4,29,22.5,28.9,22.7,28.9"/>
		<path class="st3" d="M26.6,23.3h1.5c0.2,0,0.3,0.2,0.3,0.3v0.5c0,0.2-0.2,0.3-0.3,0.3h-1.5c-0.2,0-0.3-0.2-0.3-0.3v-0.5
			C26.3,23.5,26.4,23.3,26.6,23.3"/>
		<path class="st3" d="M12.9,24.8h1.5c0.2,0,0.3,0.2,0.3,0.3v0.5c0,0.2-0.2,0.3-0.3,0.3h-1.5c-0.2,0-0.3-0.2-0.3-0.3v-0.5
			C12.6,24.9,12.8,24.8,12.9,24.8"/>
	</g>
	<g>
		<defs>
			<path id="SVGID_9_" d="M13,9.6h1.1c0.5,0,0.9,0.4,0.9,0.9v1.7h3.2v-1.7c0-0.5,0.4-0.9,0.9-0.9h2.8c0.5,0,0.9,0.4,0.9,0.9v1.7h3.2
				v-1.7c0-0.5,0.4-0.9,0.9-0.9h0.9c0.5,0,0.9,0.4,0.9,0.9v6H12.1v-6C12.1,10,12.5,9.6,13,9.6"/>
		</defs>
		<clipPath id="SVGID_10_">
			<use xlink:href="#SVGID_9_"  style="overflow:visible;"/>
		</clipPath>
		<linearGradient id="SVGID_11_" gradientUnits="userSpaceOnUse" x1="10.2639" y1="13.0685" x2="31.2307" y2="13.0685">
			<stop  offset="0" style="stop-color:#8B9CD4"/>
			<stop  offset="0.3" style="stop-color:#CCD5F4"/>
			<stop  offset="0.53" style="stop-color:#C8D2F2"/>
			<stop  offset="1" style="stop-color:#8B9CD4"/>
		</linearGradient>
		<rect x="12.1" y="9.6" class="st4" width="16.6" height="6.9"/>
	</g>
	<g>
		<defs>
			<path id="SVGID_12_" d="M13,9.6h1.1c0.5,0,0.9,0.4,0.9,0.9v1.7h3.2v-1.7c0-0.5,0.4-0.9,0.9-0.9h2.8c0.5,0,0.9,0.4,0.9,0.9v1.7
				h3.2v-1.7c0-0.5,0.4-0.9,0.9-0.9h0.9c0.5,0,0.9,0.4,0.9,0.9v6H12.1v-6C12.1,10,12.5,9.6,13,9.6"/>
		</defs>
		<clipPath id="SVGID_13_">
			<use xlink:href="#SVGID_12_"  style="overflow:visible;"/>
		</clipPath>
		<path class="st5" d="M26.7,15.9h1.5c0.2,0,0.3-0.2,0.3-0.3v-0.5c0-0.2-0.2-0.3-0.3-0.3h-1.5c-0.2,0-0.3,0.2-0.3,0.3v0.5
			C26.4,15.8,26.5,15.9,26.7,15.9"/>
		<path class="st5" d="M27.8,14.5h1.5c0.2,0,0.3-0.2,0.3-0.3v-0.5c0-0.2-0.2-0.3-0.3-0.3h-1.5c-0.2,0-0.3,0.2-0.3,0.3v0.5
			C27.4,14.4,27.6,14.5,27.8,14.5"/>
		<path class="st5" d="M25.3,14.5h1.5c0.2,0,0.3-0.2,0.3-0.3v-0.5c0-0.2-0.2-0.3-0.3-0.3h-1.5c-0.2,0-0.3,0.2-0.3,0.3v0.5
			C25,14.4,25.2,14.5,25.3,14.5"/>
		<path class="st5" d="M19,15.9h1.5c0.2,0,0.3-0.2,0.3-0.3v-0.5c0-0.2-0.2-0.3-0.3-0.3H19c-0.2,0-0.3,0.2-0.3,0.3v0.5
			C18.6,15.8,18.8,15.9,19,15.9"/>
		<path class="st5" d="M20,14.5h1.5c0.2,0,0.3-0.2,0.3-0.3v-0.5c0-0.2-0.2-0.3-0.3-0.3H20c-0.2,0-0.3,0.2-0.3,0.3v0.5
			C19.7,14.4,19.8,14.5,20,14.5"/>
		<path class="st5" d="M11.2,14.5h1.5c0.2,0,0.3-0.2,0.3-0.3v-0.5c0-0.2-0.2-0.3-0.3-0.3h-1.5c-0.2,0-0.3,0.2-0.3,0.3v0.5
			C10.9,14.4,11,14.5,11.2,14.5"/>
	</g>
	<g>
		<defs>
			<polygon id="SVGID_14_" points="12.1,16.5 13.8,18 27.1,18 28.7,16.5 			"/>
		</defs>
		<clipPath id="SVGID_15_">
			<use xlink:href="#SVGID_14_"  style="overflow:visible;"/>
		</clipPath>
		<linearGradient id="SVGID_16_" gradientUnits="userSpaceOnUse" x1="28.4844" y1="17.2835" x2="12.0917" y2="17.2835">
			<stop  offset="0" style="stop-color:#7587CC"/>
			<stop  offset="0.66" style="stop-color:#8B9CD4"/>
			<stop  offset="1" style="stop-color:#7587CC"/>
		</linearGradient>
		<rect x="12.1" y="16.5" class="st6" width="16.6" height="1.5"/>
	</g>
	<g>
		<defs>
			<rect id="SVGID_17_" x="20.1" y="4.6" width="0.5" height="5.1"/>
		</defs>
		<clipPath id="SVGID_18_">
			<use xlink:href="#SVGID_17_"  style="overflow:visible;"/>
		</clipPath>
		<linearGradient id="SVGID_19_" gradientUnits="userSpaceOnUse" x1="20.4168" y1="9.4328" x2="20.4168" y2="4.8114">
			<stop  offset="0" style="stop-color:#D1D2D4"/>
			<stop  offset="1" style="stop-color:#FDFDFD"/>
		</linearGradient>
		<rect x="20.1" y="4.6" class="st7" width="0.5" height="5.1"/>
	</g>
	<path class="st8" d="M20.4,23.1L20.4,23.1c1.8,0,3.2,1.4,3.2,3.2v4.2h-6.4v-4.2C17.2,24.6,18.6,23.1,20.4,23.1"/>
	<path class="st9" d="M20.4,23.9L20.4,23.9c1.4,0,2.5,1.3,2.5,2.9v3.7h-4.9v-3.7C17.9,25.2,19,23.9,20.4,23.9"/>
	<g>
		<defs>
			<polygon id="SVGID_20_" points="22.6,5.1 26.2,5.1 24.8,6.7 26.2,8.3 22.6,8.3 			"/>
		</defs>
		<clipPath id="SVGID_21_">
			<use xlink:href="#SVGID_20_"  style="overflow:visible;"/>
		</clipPath>
		<linearGradient id="SVGID_22_" gradientUnits="userSpaceOnUse" x1="22.5466" y1="6.6942" x2="26.7229" y2="6.6942">
			<stop  offset="0" style="stop-color:#CD0033"/>
			<stop  offset="1" style="stop-color:#FF3B30"/>
		</linearGradient>
		<rect x="22.6" y="5.1" class="st10" width="3.5" height="3.2"/>
	</g>
	<g>
		<defs>
			<rect id="SVGID_23_" x="20.7" y="4.6" width="3.5" height="3.2"/>
		</defs>
		<clipPath id="SVGID_24_">
			<use xlink:href="#SVGID_23_"  style="overflow:visible;"/>
		</clipPath>
		<linearGradient id="SVGID_25_" gradientUnits="userSpaceOnUse" x1="20.6241" y1="6.1774" x2="24.8004" y2="6.1679">
			<stop  offset="0" style="stop-color:#CD0033"/>
			<stop  offset="1" style="stop-color:#FF3B30"/>
		</linearGradient>
		<rect x="20.7" y="4.6" class="st11" width="3.5" height="3.2"/>
	</g>
</g>
</svg>
