<?xml version="1.0" encoding="utf-8"?>
<!-- Generator: Adobe Illustrator 25.3.1, SVG Export Plug-In . SVG Version: 6.00 Build 0)  -->
<svg version="1.1" id="Layer_1" xmlns="http://www.w3.org/2000/svg" xmlns:xlink="http://www.w3.org/1999/xlink" x="0px" y="0px"
	 width="40px" height="40px" viewBox="0 0 40 40" style="enable-background:new 0 0 40 40;" xml:space="preserve">
<style type="text/css">
	.st0{clip-path:url(#SVGID_2_);fill:url(#SVGID_3_);}
	.st1{fill-rule:evenodd;clip-rule:evenodd;fill:#3F2318;}
	.st2{fill-rule:evenodd;clip-rule:evenodd;fill:#FFC201;}
	.st3{fill-rule:evenodd;clip-rule:evenodd;fill:#DDA500;}
	.st4{fill-rule:evenodd;clip-rule:evenodd;fill:#82583B;}
	.st5{clip-path:url(#SVGID_5_);fill:url(#SVGID_6_);}
	.st6{fill-rule:evenodd;clip-rule:evenodd;fill:#6A452B;}
	.st7{fill-rule:evenodd;clip-rule:evenodd;fill:#FCDA4E;}
	.st8{fill-rule:evenodd;clip-rule:evenodd;fill:#AD7B4C;}
	.st9{filter:url(#Adobe_OpacityMaskFilter);}
	.st10{fill:url(#SVGID_8_);}
	.st11{mask:url(#SVGID_7_);fill-rule:evenodd;clip-rule:evenodd;}
	.st12{filter:url(#Adobe_OpacityMaskFilter_1_);}
	.st13{fill:url(#SVGID_10_);}
	.st14{mask:url(#SVGID_9_);fill-rule:evenodd;clip-rule:evenodd;}
	.st15{clip-path:url(#SVGID_12_);fill:url(#SVGID_13_);}
	.st16{clip-path:url(#SVGID_15_);fill:url(#SVGID_16_);}
</style>
<g>
	<g>
		<defs>
			<path id="SVGID_1_" d="M25.7,31.7L25.7,31.7C25.7,31.7,25.7,31.7,25.7,31.7l-13.1-6.4c-0.8-0.4-1.4-1.2-1.4-2.2
				c0-1.4,1.1-2.4,2.4-2.4c0.4,0,0.7,0.1,1.1,0.2l13,6.4c0,0,0,0,0,0l0,0c0.8,0.4,1.4,1.2,1.4,2.2c0,1.4-1.1,2.4-2.4,2.4
				C26.4,31.9,26,31.9,25.7,31.7"/>
		</defs>
		<clipPath id="SVGID_2_">
			<use xlink:href="#SVGID_1_"  style="overflow:visible;"/>
		</clipPath>
		<linearGradient id="SVGID_3_" gradientUnits="userSpaceOnUse" x1="19.0512" y1="28.5096" x2="21.4179" y2="24.0314">
			<stop  offset="0" style="stop-color:#533423"/>
			<stop  offset="1" style="stop-color:#6A452B"/>
		</linearGradient>
		<rect x="11.2" y="20.6" class="st0" width="18" height="11.3"/>
	</g>
	<path class="st1" d="M25.7,31.7L25.7,31.7C25.7,31.7,25.7,31.7,25.7,31.7l-13.1-6.4c-0.8-0.4-1.4-1.2-1.4-2.2l0,0l17.3,8.2
		c-0.4,0.5-1.1,0.7-1.7,0.7C26.4,31.9,26,31.9,25.7,31.7"/>
	<path class="st2" d="M26.8,27c-1.4,0-2.4,1.1-2.4,2.4c0,1.4,1.1,2.4,2.4,2.4c1.4,0,2.4-1.1,2.4-2.4C29.2,28.1,28.1,27,26.8,27"/>
	<path class="st3" d="M26.8,27.7c-1,0-1.8,0.8-1.8,1.8s0.8,1.8,1.8,1.8s1.8-0.8,1.8-1.8S27.8,27.7,26.8,27.7"/>
	<path class="st4" d="M23.9,27.7L23.9,27.7C23.9,27.7,23.9,27.7,23.9,27.7l-10.7-5.4c-0.2-0.1-0.4-0.3-0.4-0.6
		c0-0.4,0.3-0.7,0.7-0.7c0.1,0,0.2,0,0.3,0.1l10.7,5.4c0,0,0,0,0,0l0,0c0.2,0.1,0.4,0.3,0.4,0.6c0,0.4-0.3,0.7-0.7,0.7
		C24.1,27.8,24,27.7,23.9,27.7"/>
	<g>
		<defs>
			<path id="SVGID_4_" d="M14.8,31.7L14.8,31.7C14.8,31.7,14.8,31.7,14.8,31.7l13.3-6.6c0.8-0.4,1.4-1.2,1.4-2.2
				c0-1.4-1.1-2.4-2.4-2.4c-0.4,0-0.7,0.1-1.1,0.2l-13.3,6.6c0,0,0,0,0,0l0,0c-0.8,0.4-1.4,1.2-1.4,2.2c0,1.4,1.1,2.4,2.4,2.4
				C14.1,31.9,14.5,31.9,14.8,31.7"/>
		</defs>
		<clipPath id="SVGID_5_">
			<use xlink:href="#SVGID_4_"  style="overflow:visible;"/>
		</clipPath>
		<linearGradient id="SVGID_6_" gradientUnits="userSpaceOnUse" x1="21.6203" y1="28.4699" x2="19.2923" y2="24.0613">
			<stop  offset="0" style="stop-color:#6A452B"/>
			<stop  offset="1" style="stop-color:#976842"/>
		</linearGradient>
		<rect x="11.3" y="20.5" class="st5" width="18.2" height="11.5"/>
	</g>
	<path class="st6" d="M14.8,31.7L14.8,31.7C14.8,31.7,14.8,31.7,14.8,31.7l13.3-6.6c0.8-0.4,1.4-1.2,1.4-2.2l0,0L12,31.2
		c0.4,0.5,1.1,0.7,1.7,0.7C14.1,31.9,14.5,31.9,14.8,31.7"/>
	<path class="st7" d="M13.8,27c1.4,0,2.4,1.1,2.4,2.4c0,1.4-1.1,2.4-2.4,2.4c-1.4,0-2.4-1.1-2.4-2.4C11.3,28.1,12.4,27,13.8,27"/>
	<path class="st2" d="M13.8,27.7c1,0,1.8,0.8,1.8,1.8s-0.8,1.8-1.8,1.8s-1.8-0.8-1.8-1.8S12.7,27.7,13.8,27.7"/>
	<path class="st8" d="M16.6,27.7L16.6,27.7C16.6,27.7,16.6,27.7,16.6,27.7l10.9-5.5c0.2-0.1,0.4-0.3,0.4-0.6c0-0.4-0.3-0.7-0.7-0.7
		c-0.1,0-0.2,0-0.3,0.1L16,26.5c0,0,0,0,0,0l0,0c-0.2,0.1-0.4,0.3-0.4,0.6c0,0.4,0.3,0.7,0.7,0.7C16.4,27.8,16.5,27.7,16.6,27.7"/>
	<defs>
		<filter id="Adobe_OpacityMaskFilter" filterUnits="userSpaceOnUse" x="20.3" y="26.3" width="6.4" height="3.1">
			<feColorMatrix  type="matrix" values="1 0 0 0 0  0 1 0 0 0  0 0 1 0 0  0 0 0 1 0"/>
		</filter>
	</defs>
	<mask maskUnits="userSpaceOnUse" x="20.3" y="26.3" width="6.4" height="3.1" id="SVGID_7_">
		<g class="st9">
			
				<linearGradient id="SVGID_8_" gradientUnits="userSpaceOnUse" x1="5.4575" y1="451.6265" x2="6.0298" y2="452.7944" gradientTransform="matrix(1 0 0 1 17.5881 -424.6121)">
				<stop  offset="0" style="stop-color:#FFFFFF"/>
				<stop  offset="1" style="stop-color:#000000"/>
			</linearGradient>
			<rect x="20.3" y="26.3" class="st10" width="6.4" height="3.1"/>
		</g>
	</mask>
	<polygon class="st11" points="20.3,29.1 25.9,26.3 26.7,26.7 21,29.4 	"/>
	<defs>
		<filter id="Adobe_OpacityMaskFilter_1_" filterUnits="userSpaceOnUse" x="13.7" y="23.2" width="6.5" height="3.2">
			<feColorMatrix  type="matrix" values="1 0 0 0 0  0 1 0 0 0  0 0 1 0 0  0 0 0 1 0"/>
		</filter>
	</defs>
	<mask maskUnits="userSpaceOnUse" x="13.7" y="23.2" width="6.5" height="3.2" id="SVGID_9_">
		<g class="st12">
			
				<linearGradient id="SVGID_10_" gradientUnits="userSpaceOnUse" x1="8.3732" y1="454.4691" x2="7.7699" y2="453.1466" gradientTransform="matrix(1 0 0 1 9.1273 -428.6086)">
				<stop  offset="0" style="stop-color:#FFFFFF"/>
				<stop  offset="1" style="stop-color:#000000"/>
			</linearGradient>
			<rect x="13.7" y="23.2" class="st13" width="6.5" height="3.2"/>
		</g>
	</mask>
	<polygon class="st14" points="20.3,23.6 14.7,26.3 13.7,25.9 19.3,23.2 	"/>
	<g>
		<defs>
			<path id="SVGID_11_" d="M21.8,8.1c-0.6,0.3-1.7,0.9-2.3,2.1c-0.9,1.7-0.6,3.8-0.8,3.9c-0.2,0.1-0.3-0.8-0.6-1.2
				c-0.3-0.4-0.7-0.8-0.9-0.6c-0.2,0.2,0.3,0.7-0.1,1.3c-0.4,0.6-3.2,3.8-2.8,6.4c0.4,2.7,2.7,5.3,6,5.3c3.3,0,5.7-2.6,6.1-5.5
				c0.4-2.7-4.6-8.2-4.2-11.4c0-0.1,0-0.2-0.1-0.2C22,8.1,21.9,8,21.8,8.1"/>
		</defs>
		<clipPath id="SVGID_12_">
			<use xlink:href="#SVGID_11_"  style="overflow:visible;"/>
		</clipPath>
		<linearGradient id="SVGID_13_" gradientUnits="userSpaceOnUse" x1="20.3181" y1="9.6334" x2="20.3181" y2="25.4889">
			<stop  offset="0" style="stop-color:#FF3B30"/>
			<stop  offset="1" style="stop-color:#FFCB00"/>
		</linearGradient>
		<rect x="13.9" y="8" class="st15" width="12.9" height="17.3"/>
	</g>
	<g>
		<defs>
			<path id="SVGID_14_" d="M19.6,14.5c0.3,0.2,0.9,0.5,1.3,1.1c0.5,0.9,0.3,2.1,0.4,2.1c0.1,0,0.1-0.4,0.3-0.7
				c0.2-0.2,0.4-0.4,0.5-0.3c0.1,0.1-0.2,0.4,0.1,0.7c0.2,0.3,1.7,2,1.5,3.5c-0.2,1.4-1.5,2.9-3.2,2.9c-1.8,0-3.1-1.4-3.3-3
				c-0.2-1.5,2.5-4.4,2.3-6.1c0-0.1,0-0.1,0.1-0.1C19.5,14.5,19.5,14.5,19.6,14.5"/>
		</defs>
		<clipPath id="SVGID_15_">
			<use xlink:href="#SVGID_14_"  style="overflow:visible;"/>
		</clipPath>
		<linearGradient id="SVGID_16_" gradientUnits="userSpaceOnUse" x1="20.3583" y1="12.8664" x2="20.3583" y2="23.7719">
			<stop  offset="0" style="stop-color:#FB8A25"/>
			<stop  offset="1" style="stop-color:#FFFF00"/>
		</linearGradient>
		<rect x="16.9" y="14.5" class="st16" width="6.9" height="9.3"/>
	</g>
</g>
</svg>
