<?xml version="1.0" encoding="utf-8"?>
<!-- Generator: Adobe Illustrator 25.3.1, SVG Export Plug-In . SVG Version: 6.00 Build 0)  -->
<svg version="1.1" id="Layer_1" xmlns="http://www.w3.org/2000/svg" xmlns:xlink="http://www.w3.org/1999/xlink" x="0px" y="0px"
	 width="40px" height="40px" viewBox="0 0 40 40" style="enable-background:new 0 0 40 40;" xml:space="preserve">
<style type="text/css">
	.st0{fill-rule:evenodd;clip-rule:evenodd;fill:#1E8FE8;}
	.st1{fill-rule:evenodd;clip-rule:evenodd;fill:#006ECD;}
	.st2{opacity:0.5;fill-rule:evenodd;clip-rule:evenodd;fill:#006ECD;enable-background:new    ;}
	.st3{fill-rule:evenodd;clip-rule:evenodd;fill:#8B9CD4;}
	.st4{clip-path:url(#SVGID_2_);fill:url(#SVGID_3_);}
	.st5{clip-path:url(#SVGID_5_);fill:url(#SVGID_6_);}
	.st6{clip-path:url(#SVGID_8_);fill:url(#SVGID_9_);}
	.st7{clip-path:url(#SVGID_11_);fill:url(#SVGID_12_);}
	.st8{clip-path:url(#SVGID_14_);fill:url(#SVGID_15_);}
	.st9{clip-path:url(#SVGID_17_);fill:url(#SVGID_18_);}
	.st10{clip-path:url(#SVGID_20_);fill:url(#SVGID_21_);}
</style>
<g>
	<path class="st0" d="M18.5,31.4c-2.9-1.2-8.9-4.2-8.9-8.4V10.7c0-1.3,1.1-2.4,2.4-2.4c5.3,0,10.8,0,16.1,0c1.3,0,2.4,1.1,2.4,2.4
		V23c0,4.2-6.2,7.3-9,8.5C20.2,32,19.6,31.8,18.5,31.4"/>
	<path class="st1" d="M18.8,29.2c-2.4-1-7.3-3.4-7.3-6.8v-10c0-1.1,0.9-2,2-2c4.3,0,8.7,0,13,0c1.1,0,2,0.9,2,2v10
		c0,3.5-5,5.9-7.3,6.8C20.2,29.7,19.7,29.6,18.8,29.2"/>
	<path class="st2" d="M18.5,31.4c-2.9-1.2-8.9-4.2-8.9-8.4v-0.7c0,4.2,6.1,7.2,8.9,8.4c1.1,0.4,1.7,0.5,2.9,0c2.8-1.2,9-4.1,9-8.5
		v0.7c0,4.2-6.2,7.3-9,8.5C20.2,32,19.6,31.8,18.5,31.4"/>
	<path class="st3" d="M16.2,12.4h0.5c0.2,0,0.4,0.2,0.4,0.5V14h1.6v-1.1c0-0.3,0.2-0.5,0.4-0.5h1.4c0.2,0,0.4,0.2,0.4,0.5V14h1.6
		v-1.1c0-0.3,0.2-0.5,0.4-0.5h0.4c0.2,0,0.4,0.2,0.4,0.5v3.9h-8.7v-3.9C15.7,12.7,15.9,12.4,16.2,12.4"/>
	<g>
		<g>
			<g>
				<defs>
					<path id="SVGID_1_" d="M15,25.9h10.1c0.1,0,0.3,0.1,0.3,0.3v1.3c0,0.1-0.1,0.3-0.3,0.3H15c-0.1,0-0.3-0.1-0.3-0.3v-1.3
						C14.7,26,14.8,25.9,15,25.9"/>
				</defs>
				<clipPath id="SVGID_2_">
					<use xlink:href="#SVGID_1_"  style="overflow:visible;"/>
				</clipPath>
				
					<linearGradient id="SVGID_3_" gradientUnits="userSpaceOnUse" x1="25.2064" y1="752.7906" x2="14.6673" y2="752.7906" gradientTransform="matrix(1 0 0 1 0 -726)">
					<stop  offset="0" style="stop-color:#7587CC"/>
					<stop  offset="0.66" style="stop-color:#8B9CD4"/>
					<stop  offset="1" style="stop-color:#7587CC"/>
				</linearGradient>
				<rect x="14.7" y="25.9" class="st4" width="10.7" height="1.8"/>
			</g>
		</g>
	</g>
	<g>
		<g>
			<g>
				<defs>
					<polygon id="SVGID_4_" points="15.8,17.8 24.3,17.8 24.6,25.9 15.4,25.9 					"/>
				</defs>
				<clipPath id="SVGID_5_">
					<use xlink:href="#SVGID_4_"  style="overflow:visible;"/>
				</clipPath>
				
					<linearGradient id="SVGID_6_" gradientUnits="userSpaceOnUse" x1="14.4041" y1="747.8453" x2="25.9962" y2="747.8453" gradientTransform="matrix(1 0 0 1 0 -726)">
					<stop  offset="0" style="stop-color:#8B9CD4"/>
					<stop  offset="0.3" style="stop-color:#CCD5F4"/>
					<stop  offset="0.53" style="stop-color:#C8D2F2"/>
					<stop  offset="1" style="stop-color:#8B9CD4"/>
				</linearGradient>
				<rect x="15.4" y="17.8" class="st5" width="9.1" height="8"/>
			</g>
		</g>
	</g>
	<g>
		<g>
			<g>
				<defs>
					<path id="SVGID_7_" d="M15.2,12.4H16c0.3,0,0.5,0.2,0.5,0.5V14h2.1v-1.1c0-0.3,0.2-0.5,0.5-0.5h1.7c0.3,0,0.5,0.2,0.5,0.5V14
						h2.1v-1.1c0-0.3,0.2-0.5,0.5-0.5h0.5c0.3,0,0.5,0.2,0.5,0.5v3.9H14.5v-3.9C14.7,12.7,14.9,12.4,15.2,12.4"/>
				</defs>
				<clipPath id="SVGID_8_">
					<use xlink:href="#SVGID_7_"  style="overflow:visible;"/>
				</clipPath>
				
					<linearGradient id="SVGID_9_" gradientUnits="userSpaceOnUse" x1="13.4907" y1="740.6176" x2="26.967" y2="740.6176" gradientTransform="matrix(1 0 0 1 0 -726)">
					<stop  offset="0" style="stop-color:#8B9CD4"/>
					<stop  offset="0.3" style="stop-color:#CCD5F4"/>
					<stop  offset="0.53" style="stop-color:#C8D2F2"/>
					<stop  offset="1" style="stop-color:#8B9CD4"/>
				</linearGradient>
				<rect x="14.7" y="12.4" class="st6" width="10.7" height="4.5"/>
			</g>
		</g>
	</g>
	<g>
		<g>
			<g>
				<defs>
					<polygon id="SVGID_10_" points="14.7,16.8 15.8,17.8 24.3,17.8 25.3,16.8 					"/>
				</defs>
				<clipPath id="SVGID_11_">
					<use xlink:href="#SVGID_10_"  style="overflow:visible;"/>
				</clipPath>
				
					<linearGradient id="SVGID_12_" gradientUnits="userSpaceOnUse" x1="25.2064" y1="743.3348" x2="14.6673" y2="743.3348" gradientTransform="matrix(1 0 0 1 0 -726)">
					<stop  offset="0" style="stop-color:#7587CC"/>
					<stop  offset="0.66" style="stop-color:#8B9CD4"/>
					<stop  offset="1" style="stop-color:#7587CC"/>
				</linearGradient>
				<rect x="14.7" y="16.8" class="st7" width="10.7" height="1"/>
			</g>
		</g>
	</g>
	<g>
		<g>
			<g>
				<defs>
					<rect id="SVGID_13_" x="19.9" y="9" width="0.3" height="3.4"/>
				</defs>
				<clipPath id="SVGID_14_">
					<use xlink:href="#SVGID_13_"  style="overflow:visible;"/>
				</clipPath>
				
					<linearGradient id="SVGID_15_" gradientUnits="userSpaceOnUse" x1="20.0543" y1="738.2901" x2="20.0543" y2="735.2214" gradientTransform="matrix(1 0 0 1 0 -726)">
					<stop  offset="0" style="stop-color:#D1D2D4"/>
					<stop  offset="1" style="stop-color:#FDFDFD"/>
				</linearGradient>
				<rect x="19.9" y="9" class="st8" width="0.3" height="3.4"/>
			</g>
		</g>
	</g>
	<g>
		<g>
			<g>
				<defs>
					<polygon id="SVGID_16_" points="21.5,9.3 23.8,9.3 22.9,10.4 23.8,11.5 21.5,11.5 					"/>
				</defs>
				<clipPath id="SVGID_17_">
					<use xlink:href="#SVGID_16_"  style="overflow:visible;"/>
				</clipPath>
				
					<linearGradient id="SVGID_18_" gradientUnits="userSpaceOnUse" x1="21.4631" y1="736.433" x2="24.2273" y2="736.433" gradientTransform="matrix(1 0 0 1 0 -726)">
					<stop  offset="0" style="stop-color:#CD0033"/>
					<stop  offset="1" style="stop-color:#FF3B30"/>
				</linearGradient>
				<rect x="21.5" y="9.3" class="st9" width="2.4" height="2.2"/>
			</g>
		</g>
	</g>
	<g>
		<g>
			<g>
				<defs>
					<rect id="SVGID_19_" x="20.2" y="9" width="2.4" height="2.2"/>
				</defs>
				<clipPath id="SVGID_20_">
					<use xlink:href="#SVGID_19_"  style="overflow:visible;"/>
				</clipPath>
				
					<linearGradient id="SVGID_21_" gradientUnits="userSpaceOnUse" x1="20.1796" y1="736.107" x2="22.9522" y2="736.107" gradientTransform="matrix(1 0 0 1 0 -726)">
					<stop  offset="0" style="stop-color:#CD0033"/>
					<stop  offset="1" style="stop-color:#FF3B30"/>
				</linearGradient>
				<rect x="20.2" y="9" class="st10" width="2.4" height="2.2"/>
			</g>
		</g>
	</g>
</g>
</svg>
