<?xml version="1.0" encoding="utf-8"?>
<!-- Generator: Adobe Illustrator 25.3.1, SVG Export Plug-In . SVG Version: 6.00 Build 0)  -->
<svg version="1.1" id="Layer_1" xmlns="http://www.w3.org/2000/svg" xmlns:xlink="http://www.w3.org/1999/xlink" x="0px" y="0px"
	 width="40px" height="40px" viewBox="0 0 40 40" style="enable-background:new 0 0 40 40;" xml:space="preserve">
<style type="text/css">
	.st0{clip-path:url(#SVGID_2_);fill:url(#SVGID_3_);}
	.st1{fill-rule:evenodd;clip-rule:evenodd;fill:#66C090;}
	.st2{opacity:0.5;fill-rule:evenodd;clip-rule:evenodd;enable-background:new    ;}
	.st3{clip-path:url(#SVGID_5_);fill:url(#SVGID_6_);}
	.st4{fill-rule:evenodd;clip-rule:evenodd;fill:#77D8A4;}
	.st5{clip-path:url(#SVGID_8_);fill:url(#SVGID_9_);}
	.st6{clip-path:url(#SVGID_11_);fill:url(#SVGID_12_);}
	.st7{opacity:0.5;fill-rule:evenodd;clip-rule:evenodd;fill:#FB8A25;enable-background:new    ;}
	.st8{clip-path:url(#SVGID_14_);fill:url(#SVGID_15_);}
	.st9{clip-path:url(#SVGID_17_);fill:url(#SVGID_18_);}
	.st10{clip-path:url(#SVGID_20_);fill:url(#SVGID_21_);}
	.st11{clip-path:url(#SVGID_23_);fill:url(#SVGID_24_);}
	.st12{opacity:0.3;enable-background:new    ;}
	.st13{clip-path:url(#SVGID_26_);fill:url(#SVGID_27_);}
	.st14{clip-path:url(#SVGID_29_);fill:url(#SVGID_30_);}
	.st15{clip-path:url(#SVGID_32_);fill:url(#SVGID_33_);}
	.st16{clip-path:url(#SVGID_35_);fill:url(#SVGID_36_);}
	.st17{clip-path:url(#SVGID_38_);fill:url(#SVGID_39_);}
	.st18{fill:#FB8A25;}
</style>
<g>
	<g>
		<g>
			<g>
				<defs>
					<path id="SVGID_1_" d="M12.9,12.6h14.8c0.5,0,1.1,0.4,1.1,1.1v7.8c0,0.5-0.4,1.1-1.1,1.1H12.9c-0.5,0-1.1-0.4-1.1-1.1v-7.8
						C11.8,13.1,12.2,12.6,12.9,12.6"/>
				</defs>
				<clipPath id="SVGID_2_">
					<use xlink:href="#SVGID_1_"  style="overflow:visible;"/>
				</clipPath>
				
					<linearGradient id="SVGID_3_" gradientUnits="userSpaceOnUse" x1="20.2747" y1="748.7205" x2="20.2747" y2="738.6376" gradientTransform="matrix(1 0 0 1 0 -726)">
					<stop  offset="0" style="stop-color:#357E67"/>
					<stop  offset="1" style="stop-color:#3E9379"/>
				</linearGradient>
				<rect x="11.8" y="12.6" class="st0" width="17" height="10"/>
			</g>
		</g>
	</g>
	<path class="st1" d="M13.8,21.6h-0.3c-0.4,0-0.9-0.4-0.9-0.9v-0.2c0.1,0,0.1,0,0.2,0c0.5,0,1,0.4,1,1
		C13.8,21.6,13.8,21.6,13.8,21.6 M26.8,13.5H27c0.4,0,0.9,0.4,0.9,0.9v0.2h-0.1c-0.5,0-1-0.4-1-1C26.8,13.6,26.8,13.6,26.8,13.5z
		 M27.9,20.5v0.2c0,0.4-0.4,0.9-0.9,0.9h-0.2v-0.1C26.8,21,27.3,20.5,27.9,20.5C27.8,20.5,27.8,20.5,27.9,20.5z M14.5,13.5h11.6v0.1
		c0,0.9,0.8,1.6,1.6,1.6h0.1v4.6h-0.1c-0.9,0-1.6,0.8-1.6,1.6v0.1H14.5v-0.1c0-0.9-0.8-1.6-1.6-1.6c-0.1,0-0.1,0-0.2,0v-4.6
		c0.1,0,0.1,0,0.2,0c0.9,0,1.6-0.8,1.6-1.6C14.5,13.6,14.5,13.6,14.5,13.5z M20.3,14.8c1.6,0,3,1.3,3,3s-1.3,3-3,3s-3-1.3-3-3
		C17.4,16.2,18.7,14.8,20.3,14.8z M14.8,16.9c0.4,0,0.9,0.4,0.9,0.9s-0.4,0.9-0.9,0.9c-0.4,0-0.9-0.4-0.9-0.9
		C14,17.3,14.4,16.9,14.8,16.9z M25.5,16.9c0.4,0,0.9,0.4,0.9,0.9s-0.4,0.9-0.9,0.9s-0.9-0.4-0.9-0.9C24.6,17.3,24.9,16.9,25.5,16.9
		z M13.6,13.5H14v0.1c0,0.5-0.4,1-1,1c-0.1,0-0.1,0-0.2,0v-0.2C12.6,14,13.1,13.5,13.6,13.5z"/>
	<path class="st2" d="M27.8,12.6c0,0.1,0,0.1,0,0.2v7.8c0,0.5-0.4,1.1-1.1,1.1H11.8v-9.1H27.8z"/>
	<g>
		<g>
			<g>
				<defs>
					<path id="SVGID_4_" d="M11.1,10.9h14.8c0.5,0,1.1,0.4,1.1,1.1v7.8c0,0.5-0.4,1.1-1.1,1.1H11.1c-0.5,0-1.1-0.4-1.1-1.1V12
						C10,11.4,10.5,10.9,11.1,10.9"/>
				</defs>
				<clipPath id="SVGID_5_">
					<use xlink:href="#SVGID_4_"  style="overflow:visible;"/>
				</clipPath>
				
					<linearGradient id="SVGID_6_" gradientUnits="userSpaceOnUse" x1="18.5165" y1="746.9927" x2="18.5165" y2="736.91" gradientTransform="matrix(1 0 0 1 0 -726)">
					<stop  offset="0" style="stop-color:#2F9C7A"/>
					<stop  offset="1" style="stop-color:#36B88F"/>
				</linearGradient>
				<rect x="10" y="10.9" class="st3" width="17" height="10"/>
			</g>
		</g>
	</g>
	<path class="st4" d="M12.1,20h-0.3c-0.4,0-0.9-0.4-0.9-0.9v-0.2c0.1,0,0.1,0,0.2,0c0.5,0,1,0.4,1,1C12.1,19.9,12.1,19.9,12.1,20
		 M25.1,11.8h0.2c0.4,0,0.9,0.4,0.9,0.9v0.2H26c-0.5,0-1-0.4-1-1C25.1,11.9,25.1,11.9,25.1,11.8z M26.2,18.8V19
		c0,0.4-0.4,0.9-0.9,0.9h-0.2v-0.1C25.1,19.2,25.5,18.8,26.2,18.8C26,18.8,26.2,18.8,26.2,18.8z M12.7,11.8h11.6v0.1
		c0,0.9,0.8,1.6,1.6,1.6h0.1v4.6H26c-0.9,0-1.6,0.8-1.6,1.6v0.1H12.7v-0.1c0-0.9-0.8-1.6-1.6-1.6c-0.1,0-0.1,0-0.2,0v-4.6
		c0.1,0,0.1,0,0.2,0C12,13.5,12.7,12.7,12.7,11.8C12.7,11.9,12.7,11.9,12.7,11.8z M18.6,13.1c1.6,0,3,1.3,3,3c0,1.6-1.3,3-3,3
		s-3-1.3-3-3C15.6,14.4,16.9,13.1,18.6,13.1z M13.1,15.2c0.4,0,0.9,0.4,0.9,0.9c0,0.4-0.4,0.9-0.9,0.9c-0.4,0-0.9-0.4-0.9-0.9
		C12.2,15.6,12.6,15.2,13.1,15.2z M23.7,15.2c0.4,0,0.9,0.4,0.9,0.9c0,0.4-0.4,0.9-0.9,0.9s-0.9-0.4-0.9-0.9
		C22.9,15.6,23.3,15.2,23.7,15.2z M11.9,11.8h0.3v0.1c0,0.5-0.4,1-1,1c-0.1,0-0.1,0-0.2,0v-0.2C11,12.2,11.3,11.8,11.9,11.8z"/>
	<g>
		<g>
			<g>
				<defs>
					<path id="SVGID_7_" d="M22.1,23.2c1.9,0,3.4,0.4,3.4,1.1l0,0v1.6l0,0c0,0.5-1.5,1.1-3.4,1.1s-3.4-0.4-3.4-1.1l0,0v-1.6l0,0
						C18.7,23.6,20.2,23.2,22.1,23.2"/>
				</defs>
				<clipPath id="SVGID_8_">
					<use xlink:href="#SVGID_7_"  style="overflow:visible;"/>
				</clipPath>
				
					<linearGradient id="SVGID_9_" gradientUnits="userSpaceOnUse" x1="22.033" y1="752.8653" x2="22.033" y2="750.3391" gradientTransform="matrix(1 0 0 1 0 -726)">
					<stop  offset="0" style="stop-color:#FB8A25"/>
					<stop  offset="1" style="stop-color:#F1B304"/>
				</linearGradient>
				<rect x="18.6" y="23.2" class="st5" width="6.9" height="3.7"/>
			</g>
		</g>
	</g>
	<g>
		<g>
			<g>
				<defs>
					<path id="SVGID_10_" d="M22.1,23.2c1.9,0,3.4,0.4,3.4,1.1c0,0.5-1.5,1.1-3.4,1.1s-3.4-0.4-3.4-1.1
						C18.7,23.6,20.2,23.2,22.1,23.2"/>
				</defs>
				<clipPath id="SVGID_11_">
					<use xlink:href="#SVGID_10_"  style="overflow:visible;"/>
				</clipPath>
				
					<linearGradient id="SVGID_12_" gradientUnits="userSpaceOnUse" x1="22.1429" y1="751.1885" x2="22.1429" y2="748.655" gradientTransform="matrix(1 0 0 1 0 -726)">
					<stop  offset="0" style="stop-color:#FFCB00"/>
					<stop  offset="1" style="stop-color:#FFFF00"/>
				</linearGradient>
				<rect x="18.7" y="23.2" class="st6" width="6.9" height="2.1"/>
			</g>
		</g>
	</g>
	<path class="st7" d="M22.1,23.5c1,0,1.9,0.2,1.9,0.5s-0.9,0.5-1.9,0.5c-1,0-1.9-0.2-1.9-0.5C20.2,23.7,21.1,23.5,22.1,23.5"/>
	<g>
		<g>
			<g>
				<defs>
					<path id="SVGID_13_" d="M22.1,21.3c1.9,0,3.4,0.4,3.4,1.1l0,0v1.6l0,0c0,0.5-1.5,1.1-3.4,1.1s-3.4-0.4-3.4-1.1l0,0v-1.6l0,0
						C18.7,21.8,20.2,21.3,22.1,21.3"/>
				</defs>
				<clipPath id="SVGID_14_">
					<use xlink:href="#SVGID_13_"  style="overflow:visible;"/>
				</clipPath>
				
					<linearGradient id="SVGID_15_" gradientUnits="userSpaceOnUse" x1="22.033" y1="750.9706" x2="22.033" y2="748.4373" gradientTransform="matrix(1 0 0 1 0 -726)">
					<stop  offset="0" style="stop-color:#FB8A25"/>
					<stop  offset="1" style="stop-color:#F1B304"/>
				</linearGradient>
				<rect x="18.6" y="21.3" class="st8" width="6.9" height="3.7"/>
			</g>
		</g>
	</g>
	<g>
		<g>
			<g>
				<defs>
					<path id="SVGID_16_" d="M22.1,21.3c1.9,0,3.4,0.4,3.4,1.1c0,0.5-1.5,1.1-3.4,1.1s-3.4-0.4-3.4-1.1
						C18.7,21.8,20.2,21.3,22.1,21.3"/>
				</defs>
				<clipPath id="SVGID_17_">
					<use xlink:href="#SVGID_16_"  style="overflow:visible;"/>
				</clipPath>
				
					<linearGradient id="SVGID_18_" gradientUnits="userSpaceOnUse" x1="22.1429" y1="749.2866" x2="22.1429" y2="746.7532" gradientTransform="matrix(1 0 0 1 0 -726)">
					<stop  offset="0" style="stop-color:#FFCB00"/>
					<stop  offset="1" style="stop-color:#FFFF00"/>
				</linearGradient>
				<rect x="18.7" y="21.3" class="st9" width="6.9" height="2.1"/>
			</g>
		</g>
	</g>
	<path class="st7" d="M22.1,21.5c1,0,1.9,0.2,1.9,0.5s-0.9,0.5-1.9,0.5c-1,0-1.9-0.2-1.9-0.5C20.2,21.9,21.1,21.5,22.1,21.5"/>
	<g>
		<g>
			<g>
				<defs>
					<path id="SVGID_19_" d="M22.1,19.3c1.9,0,3.4,0.4,3.4,1.1l0,0v1.6l0,0c0,0.5-1.5,1.1-3.4,1.1s-3.4-0.4-3.4-1.1l0,0v-1.6l0,0
						C18.7,19.9,20.2,19.3,22.1,19.3"/>
				</defs>
				<clipPath id="SVGID_20_">
					<use xlink:href="#SVGID_19_"  style="overflow:visible;"/>
				</clipPath>
				
					<linearGradient id="SVGID_21_" gradientUnits="userSpaceOnUse" x1="22.033" y1="749.0688" x2="22.033" y2="746.5427" gradientTransform="matrix(1 0 0 1 0 -726)">
					<stop  offset="0" style="stop-color:#FB8A25"/>
					<stop  offset="1" style="stop-color:#F1B304"/>
				</linearGradient>
				<rect x="18.6" y="19.3" class="st10" width="6.9" height="3.7"/>
			</g>
		</g>
	</g>
	<g>
		<g>
			<g>
				<defs>
					<path id="SVGID_22_" d="M22.1,19.3c1.9,0,3.4,0.4,3.4,1.1c0,0.5-1.5,1.1-3.4,1.1s-3.4-0.4-3.4-1.1
						C18.7,19.9,20.2,19.3,22.1,19.3"/>
				</defs>
				<clipPath id="SVGID_23_">
					<use xlink:href="#SVGID_22_"  style="overflow:visible;"/>
				</clipPath>
				
					<linearGradient id="SVGID_24_" gradientUnits="userSpaceOnUse" x1="22.1429" y1="747.392" x2="22.1429" y2="744.8586" gradientTransform="matrix(1 0 0 1 0 -726)">
					<stop  offset="0" style="stop-color:#FFCB00"/>
					<stop  offset="1" style="stop-color:#FFFF00"/>
				</linearGradient>
				<rect x="18.7" y="19.3" class="st11" width="6.9" height="2.1"/>
			</g>
		</g>
	</g>
	<path class="st7" d="M22.1,19.7c1,0,1.9,0.2,1.9,0.5c0,0.3-0.9,0.5-1.9,0.5c-1,0-1.9-0.2-1.9-0.5C20.2,20,21.1,19.7,22.1,19.7"/>
	<path class="st12" d="M17.6,20.5c1.8,0,3.2,1.4,3.2,3.2s-1.4,3.2-3.2,3.2s-3.2-1.4-3.2-3.2S15.8,20.5,17.6,20.5"/>
	<g>
		<g>
			<g>
				<defs>
					<path id="SVGID_25_" d="M26.6,25.3c1.9,0,3.4,0.4,3.4,1.1l0,0V28l0,0c0,0.5-1.5,1.1-3.4,1.1c-1.9,0-3.4-0.4-3.4-1.1l0,0v-1.6
						l0,0C23.1,25.8,24.6,25.3,26.6,25.3"/>
				</defs>
				<clipPath id="SVGID_26_">
					<use xlink:href="#SVGID_25_"  style="overflow:visible;"/>
				</clipPath>
				
					<linearGradient id="SVGID_27_" gradientUnits="userSpaceOnUse" x1="26.5385" y1="755.0067" x2="26.5385" y2="752.4805" gradientTransform="matrix(1 0 0 1 0 -726)">
					<stop  offset="0" style="stop-color:#FB8A25"/>
					<stop  offset="1" style="stop-color:#F1B304"/>
				</linearGradient>
				<rect x="23.1" y="25.3" class="st13" width="6.9" height="3.7"/>
			</g>
		</g>
	</g>
	<g>
		<g>
			<g>
				<defs>
					<path id="SVGID_28_" d="M26.6,25.3c1.9,0,3.4,0.4,3.4,1.1c0,0.5-1.5,1.1-3.4,1.1c-1.9,0-3.4-0.4-3.4-1.1
						C23.1,25.8,24.6,25.3,26.6,25.3"/>
				</defs>
				<clipPath id="SVGID_29_">
					<use xlink:href="#SVGID_28_"  style="overflow:visible;"/>
				</clipPath>
				
					<linearGradient id="SVGID_30_" gradientUnits="userSpaceOnUse" x1="26.5385" y1="753.3299" x2="26.5385" y2="750.7965" gradientTransform="matrix(1 0 0 1 0 -726)">
					<stop  offset="0" style="stop-color:#FFCB00"/>
					<stop  offset="1" style="stop-color:#FFFF00"/>
				</linearGradient>
				<rect x="23.1" y="25.3" class="st14" width="6.9" height="2.1"/>
			</g>
		</g>
	</g>
	<path class="st7" d="M26.6,25.6c1,0,1.9,0.2,1.9,0.5s-0.9,0.5-1.9,0.5s-1.9-0.2-1.9-0.5C24.7,25.9,25.5,25.6,26.6,25.6"/>
	<g>
		<g>
			<g>
				<defs>
					<path id="SVGID_31_" d="M26.6,23.4c1.9,0,3.4,0.4,3.4,1.1l0,0v1.6l0,0c0,0.5-1.5,1.1-3.4,1.1c-1.9,0-3.4-0.4-3.4-1.1l0,0v-1.6
						l0,0C23.1,23.8,24.6,23.4,26.6,23.4"/>
				</defs>
				<clipPath id="SVGID_32_">
					<use xlink:href="#SVGID_31_"  style="overflow:visible;"/>
				</clipPath>
				
					<linearGradient id="SVGID_33_" gradientUnits="userSpaceOnUse" x1="26.5385" y1="753.1049" x2="26.5385" y2="750.5787" gradientTransform="matrix(1 0 0 1 0 -726)">
					<stop  offset="0" style="stop-color:#FB8A25"/>
					<stop  offset="1" style="stop-color:#F1B304"/>
				</linearGradient>
				<rect x="23.1" y="23.4" class="st15" width="6.9" height="3.7"/>
			</g>
		</g>
	</g>
	<g>
		<g>
			<g>
				<defs>
					<path id="SVGID_34_" d="M26.6,23.4c1.9,0,3.4,0.4,3.4,1.1c0,0.5-1.5,1.1-3.4,1.1c-1.9,0-3.4-0.4-3.4-1.1
						C23.1,24,24.6,23.4,26.6,23.4"/>
				</defs>
				<clipPath id="SVGID_35_">
					<use xlink:href="#SVGID_34_"  style="overflow:visible;"/>
				</clipPath>
				
					<linearGradient id="SVGID_36_" gradientUnits="userSpaceOnUse" x1="26.5385" y1="751.428" x2="26.5385" y2="748.8946" gradientTransform="matrix(1 0 0 1 0 -726)">
					<stop  offset="0" style="stop-color:#FFCB00"/>
					<stop  offset="1" style="stop-color:#FFFF00"/>
				</linearGradient>
				<rect x="23.1" y="23.4" class="st16" width="6.9" height="2.1"/>
			</g>
		</g>
	</g>
	<path class="st7" d="M26.6,23.7c1,0,1.9,0.2,1.9,0.5c0,0.3-0.9,0.5-1.9,0.5s-1.9-0.2-1.9-0.5C24.7,24,25.5,23.7,26.6,23.7"/>
	<g>
		<g>
			<g>
				<defs>
					<path id="SVGID_37_" d="M16.6,20.5c2,0,3.5,1.5,3.5,3.5s-1.5,3.5-3.5,3.5s-3.5-1.5-3.5-3.5S14.6,20.5,16.6,20.5"/>
				</defs>
				<clipPath id="SVGID_38_">
					<use xlink:href="#SVGID_37_"  style="overflow:visible;"/>
				</clipPath>
				
					<linearGradient id="SVGID_39_" gradientUnits="userSpaceOnUse" x1="16.6484" y1="755.3043" x2="16.6484" y2="748.343" gradientTransform="matrix(1 0 0 1 0 -726)">
					<stop  offset="0" style="stop-color:#FB8A25"/>
					<stop  offset="1" style="stop-color:#FFCB00"/>
				</linearGradient>
				<rect x="13.1" y="20.5" class="st17" width="7.1" height="7.1"/>
			</g>
		</g>
	</g>
	<path class="st18" d="M16.6,22.2c1.1,0,1.9,0.9,1.9,1.9c0,1.1-0.9,1.9-1.9,1.9c-1.1,0-1.9-0.9-1.9-1.9C14.7,23,15.5,22.2,16.6,22.2
		"/>
</g>
</svg>
