<?xml version="1.0" encoding="utf-8"?>
<!-- Generator: Adobe Illustrator 25.3.1, SVG Export Plug-In . SVG Version: 6.00 Build 0)  -->
<svg version="1.1" id="Layer_1" xmlns="http://www.w3.org/2000/svg" xmlns:xlink="http://www.w3.org/1999/xlink" x="0px" y="0px"
	 width="40px" height="40px" viewBox="0 0 40 40" style="enable-background:new 0 0 40 40;" xml:space="preserve">
<style type="text/css">
	.st0{clip-path:url(#SVGID_2_);fill:url(#SVGID_3_);}
	.st1{clip-path:url(#SVGID_5_);fill:url(#SVGID_6_);}
	.st2{clip-path:url(#SVGID_8_);fill:url(#SVGID_9_);}
	.st3{clip-path:url(#SVGID_11_);fill:url(#SVGID_12_);}
	.st4{fill:#797C98;}
	.st5{clip-path:url(#SVGID_14_);fill:url(#SVGID_15_);}
	.st6{fill:#495275;}
	.st7{fill:#A37FEF;}
	.st8{clip-path:url(#SVGID_17_);fill:url(#SVGID_18_);}
	.st9{opacity:0.5;fill:#FF813F;}
	.st10{fill:#333333;}
</style>
<g>
	<g>
		<defs>
			<path id="SVGID_1_" d="M22.1,28.1v0.6c0,4.7-7.1,4.7-7.1,0v-3.3L22.1,28.1z"/>
		</defs>
		<clipPath id="SVGID_2_">
			<use xlink:href="#SVGID_1_"  style="overflow:visible;"/>
		</clipPath>
		<linearGradient id="SVGID_3_" gradientUnits="userSpaceOnUse" x1="18.5584" y1="32.0192" x2="18.5584" y2="26.7083">
			<stop  offset="0" style="stop-color:#FFB186"/>
			<stop  offset="1" style="stop-color:#D77D08"/>
		</linearGradient>
		<rect x="15" y="25.5" class="st0" width="7.1" height="8"/>
	</g>
	<g>
		<defs>
			<path id="SVGID_4_" d="M19.8,29.5c4.1,0,7.5-3.4,7.5-7.5v-3.5c0-4.1-3.4-7.5-7.5-7.5c-4.1,0-7.5,3.4-7.5,7.5V22
				C12.3,26.1,15.7,29.5,19.8,29.5"/>
		</defs>
		<clipPath id="SVGID_5_">
			<use xlink:href="#SVGID_4_"  style="overflow:visible;"/>
		</clipPath>
		<linearGradient id="SVGID_6_" gradientUnits="userSpaceOnUse" x1="19.8084" y1="30.7049" x2="19.8084" y2="14.79">
			<stop  offset="0" style="stop-color:#FFB186"/>
			<stop  offset="1" style="stop-color:#FFC3B8"/>
		</linearGradient>
		<rect x="12.3" y="11" class="st1" width="15" height="18.5"/>
	</g>
	<g>
		<defs>
			<path id="SVGID_7_" d="M12.8,23c1.6-1.2,2.6-3.3,2.4-5.3c1.2-0.6,2.2-2.3,1.6-3.6c3.9,2.2,9.2,2.2,10.3,2
				c6.4-1.1-5.7-13.8-13.7-5.5C8.8,11,10.6,19,10.5,22.1L12.8,23z"/>
		</defs>
		<clipPath id="SVGID_8_">
			<use xlink:href="#SVGID_7_"  style="overflow:visible;"/>
		</clipPath>
		<linearGradient id="SVGID_9_" gradientUnits="userSpaceOnUse" x1="21.4538" y1="23.2921" x2="21.0157" y2="7.7258">
			<stop  offset="0" style="stop-color:#F15276"/>
			<stop  offset="1" style="stop-color:#FF8198"/>
		</linearGradient>
		<rect x="8.8" y="2.2" class="st2" width="24.7" height="20.7"/>
	</g>
	<g>
		<defs>
			<path id="SVGID_10_" d="M16.8,14c3.9,2.2,9.2,2.2,10.3,2c6.4-1.1-5.7-13.8-13.7-5.5C13.4,10.5,14.5,12.5,16.8,14"/>
		</defs>
		<clipPath id="SVGID_11_">
			<use xlink:href="#SVGID_10_"  style="overflow:visible;"/>
		</clipPath>
		<linearGradient id="SVGID_12_" gradientUnits="userSpaceOnUse" x1="15.6871" y1="10.0176" x2="30.091" y2="8.605">
			<stop  offset="0" style="stop-color:#F15276"/>
			<stop  offset="1" style="stop-color:#FF8198"/>
		</linearGradient>
		<rect x="13.4" y="2.2" class="st3" width="20.1" height="14"/>
	</g>
	<path class="st4" d="M21.1,23.6h7.2c1.4,0,2.5-1.1,2.5-2.5v-1.7c0-1.4-1.1-2.5-2.5-2.5h-7.2c-1.4,0-2.5,1.1-2.5,2.5v1.7
		C18.6,22.5,19.7,23.6,21.1,23.6"/>
	<g>
		<defs>
			<path id="SVGID_13_" d="M30.3,21.1v-1.7c0-1.1-0.9-2-2-2h-7.2c-1.1,0-2,0.9-2,2v1.7c0,1.1,0.9,2,2,2h2.5c0.3,0,0.6-0.2,0.7-0.5
				c0.2-0.4,0.5-0.7,1-0.7h0c0.4,0,0.8,0.3,1,0.7c0.1,0.3,0.4,0.5,0.7,0.5h1.3C29.4,23.1,30.3,22.2,30.3,21.1"/>
		</defs>
		<clipPath id="SVGID_14_">
			<use xlink:href="#SVGID_13_"  style="overflow:visible;"/>
		</clipPath>
		<linearGradient id="SVGID_15_" gradientUnits="userSpaceOnUse" x1="24.706" y1="16.5603" x2="24.706" y2="23.6326">
			<stop  offset="0" style="stop-color:#8A61DF"/>
			<stop  offset="1" style="stop-color:#A88CFA"/>
		</linearGradient>
		<rect x="19.1" y="17.4" class="st5" width="11.2" height="5.8"/>
	</g>
	<path class="st6" d="M17.9,16.8h3.3c-1.4,0-2.5,1.1-2.5,2.5v1.7c0,1.4,1.1,2.5,2.5,2.5h-3.3c-1.4,0-2.5-1.1-2.5-2.5v-1.7
		C15.3,18,16.5,16.8,17.9,16.8"/>
	<rect x="10.1" y="19" class="st7" width="5.2" height="2.1"/>
	<g>
		<defs>
			<path id="SVGID_16_" d="M10.4,20.1c-0.7,0.3-1.3,1-1.2,1.8c0,0.5,0.3,1,0.6,1.5c0.4,0.5,0.8,1.1,1.4,1.4c1.2,0.6,2.5,0,2.6-1.4
				c0-0.5-0.2-0.9-0.4-1.3c-0.2-0.6-0.4-1.2-1-1.6C11.8,20,11.1,19.9,10.4,20.1"/>
		</defs>
		<clipPath id="SVGID_17_">
			<use xlink:href="#SVGID_16_"  style="overflow:visible;"/>
		</clipPath>
		<linearGradient id="SVGID_18_" gradientUnits="userSpaceOnUse" x1="11.4633" y1="25.2688" x2="11.4633" y2="21.0308">
			<stop  offset="0" style="stop-color:#FFB186"/>
			<stop  offset="1" style="stop-color:#FFC3B8"/>
		</linearGradient>
		<rect x="9.2" y="19.9" class="st8" width="4.6" height="5.4"/>
	</g>
	<path class="st9" d="M10.3,21.6c0.2-0.3,0.6-0.5,1-0.5c0.4,0,0.8,0.2,1,0.6c0.2,0.3,0.3,0.7,0.3,1.1c0,0.2,0,0.4-0.1,0.5
		c-0.1,0.2-0.2,0.3-0.4,0.3c-0.3,0.1-0.6-0.2-0.8-0.4c-0.1-0.3-0.2-0.6-0.1-0.9c0.1-0.3,0.3-0.5,0.6-0.7c-0.2-0.2-0.5-0.3-0.8-0.3
		C10.7,21.4,10.4,21.5,10.3,21.6"/>
	<path class="st10" d="M20.6,25.4c0-0.1,0-0.2,0.1-0.3c0.1,0,0.2,0,0.2,0.2c0.1,0.4,0.4,0.8,0.7,1c0.3,0.2,0.6,0.3,0.9,0.3
		c0.3,0,0.7-0.1,0.9-0.2c0.3-0.2,0.6-0.5,0.7-1c0-0.1,0.1-0.2,0.2-0.1c0.1,0,0.2,0.2,0.1,0.3c-0.2,0.6-0.5,1-0.9,1.3
		c-0.3,0.2-0.7,0.3-1.1,0.3c-0.4,0-0.8-0.1-1.1-0.3C21,26.4,20.7,25.9,20.6,25.4"/>
	<path class="st7" d="M23.9,23.1c0.2-0.1,0.4-0.2,0.4-0.4c0.1-0.1,0.1-0.3,0.2-0.4c-0.3,0.1-0.5,0.4-0.6,0.6
		C23.9,23,23.9,23,23.9,23.1 M30.3,21.1v-1.7c0-1.1-0.9-2-2-2h-7.2c-0.6,0-1.1,0.2-1.4,0.6c0.3-0.2,0.7-0.3,1-0.3h7.2
		c1.1,0,2,0.9,2,2v1.7c0,0.6-0.2,1.1-0.6,1.4C29.9,22.5,30.3,21.8,30.3,21.1z"/>
</g>
</svg>
